<svg id="art_deco_thin" data-name="art deco thin" xmlns="http://www.w3.org/2000/svg" viewBox="0 0 365 90"><defs><style>.cls-1{fill:#fff;}</style></defs><path class="cls-1" d="M38.94,68.16l-5.2-12.24H10.22L5.82,68.16H4.94L24.62,14.24l25,53.92Zm-5.52-13L21.1,25.84,10.46,55.12Z"/><path class="cls-1" d="M91.42,34.72A19.62,19.62,0,0,1,78.14,53.28L88.3,68.16h-1L77.26,53.44a44.59,44.59,0,0,1-6.64.56V68.16H59.74V15.52H72.22A19.2,19.2,0,0,1,91.42,34.72Zm-.72,0A18.87,18.87,0,0,0,70.62,16.24v37A18.89,18.89,0,0,0,90.7,34.72Z"/><path class="cls-1" d="M132.38,15.52v.8H117.9V68.16H107V16.32H92.46v-.8Z"/><path class="cls-1" d="M209.74,41.84a26.29,26.29,0,0,1-26.32,26.32H170.94V15.52h12.48A26.29,26.29,0,0,1,209.74,41.84Zm-.8,0a25.93,25.93,0,0,0-27.12-25.6v51.2A25.93,25.93,0,0,0,208.94,41.84Z"/><path class="cls-1" d="M254.78,15.52v.8H233.1V47h15.6v.8H233.1V67.36h21.68v.8H222.22V15.52Z"/><path class="cls-1" d="M284.78,14.64a27.2,27.2,0,0,1,15.68,4.88v.72c-2-1.92-8.64-4.88-15.68-4.88a26.87,26.87,0,0,0-13,3.44V64.88a26.8,26.8,0,0,0,13,3.36c7,0,13.68-2.88,15.68-4.8v.72A27.2,27.2,0,0,1,284.78,69c-5.44,0-27.2-4.08-27.2-27.2C257.58,19.36,278.54,14.64,284.78,14.64Z"/><path class="cls-1" d="M331.1,14.64a27.2,27.2,0,1,1-27.2,27.2A27.14,27.14,0,0,1,331.1,14.64Zm0,53.6a27.35,27.35,0,0,0,16.4-5.52V21a26.7,26.7,0,0,0-32.72,0V62.72A27.29,27.29,0,0,0,331.1,68.24Z"/></svg>