<svg width="35" height="30" xmlns="http://www.w3.org/2000/svg">
 <title/>

 <g>
  <title>background</title>
  <rect fill="none" id="canvas_background" height="32" width="37" y="-1" x="-1"/>
 </g>
 <g>
  <title>Layer 1</title>
  <path fill="#e4a0a1" id="svg-compare" d="m21.777211,8.811225l-18.79,0l6.14,-6.15a0.5,0.5 0 0 0 -0.71,-0.71l-7,7a0.5,0.5 0 0 0 -0.05,0.08l0,0.07l0,0a0.48,0.48 0 0 0 0,0.08a0.31,0.31 0 0 0 0,0.19a0.48,0.48 0 0 0 0,0.09l0,0a0.49,0.49 0 0 0 0,0.08l0,0.06l6,7a0.5,0.5 0 1 0 0.76,-0.65l-5.26,-6.14l18.91,0a0.5,0.5 0 0 0 0,-1z"/>
  <path fill="#e4a0a1" transform="rotate(180 22.95421028137207,20.897693634033203) " id="svg_2" d="m32.916667,20.418367l-18.79,0l6.14,-6.15a0.5,0.5 0 0 0 -0.71,-0.71l-7,7a0.5,0.5 0 0 0 -0.05,0.08l0,0.07l0,0a0.48,0.48 0 0 0 0,0.08a0.31,0.31 0 0 0 0,0.19a0.48,0.48 0 0 0 0,0.09l0,0a0.49,0.49 0 0 0 0,0.08l0,0.06l6,7a0.5,0.5 0 1 0 0.76,-0.65l-5.26,-6.14l18.91,0a0.5,0.5 0 0 0 0,-1z"/>
 </g>
</svg>