<?xml version="1.0" encoding="UTF-8" standalone="no"?>
<svg viewBox="0 0 100 18" version="1.1" xmlns="http://www.w3.org/2000/svg" xmlns:xlink="http://www.w3.org/1999/xlink" xmlns:sketch="http://www.bohemiancoding.com/sketch/ns">
    <!-- Generator: Sketch 3.4 (15575) - http://www.bohemiancoding.com/sketch -->
    <title>Group</title>
    <desc>Created with Sketch.</desc>
    <defs></defs>
    <g id="Page-1" stroke="none" stroke-width="1" fill-rule="evenodd" sketch:type="MSPage">
        <g id="Mobile" sketch:type="MSArtboardGroup" transform="translate(-110.000000, -71.000000)">
            <g id="Header" sketch:type="MSLayerGroup" transform="translate(10.000000, 68.532501)">
                <g id="gemmyo-logo" transform="translate(100.000000, 3.000000)" sketch:type="MSShapeGroup">
                    <g id="Group">
                        <path d="M45.9,14.1 C45.9,15.6 45.6,16.1 44.4,16.1 L43.8,16.1 L43.8,16.6 L49.9,16.6 L49.9,16.1 L49.5,16.1 C48.2,16.1 47.8,15.7 47.8,14.2 L47.8,4.6 C47.8,3.2 48.2,2.9 49.6,2.9 L49.9,2.9 L49.9,2.4 L46.3,2.4 L41.2,13.6 L36.6,2.4 L32.5,2.4 L32.5,2.9 L32.8,2.9 C34,2.9 34.5,3.4 34.5,4.6 L34.5,14.4 C34.5,15.7 34.1,16.1 32.9,16.1 L32.5,16.1 L32.5,16.6 L37.1,16.6 L37.1,16.1 L36.7,16.1 C35.4,16.1 35,15.8 35,14.3 L35,3.7 L40.6,16.6 L45.7,4.9 L45.9,14.1 L45.9,14.1 Z"></path>
                        <path d="M85.6,2.4 L81.5,2.4 L81.5,2.9 L82.1,2.9 C83.1,2.9 83.4,3.4 82.9,4.3 L79.2,9.8 L76,4.4 C75.4,3.3 75.6,2.9 76.5,2.9 L77,2.9 L77,2.4 L71.4,2.4 L71.4,2.9 L71.8,2.9 C72.5,2.9 73.1,3.3 73.5,3.9 L77.5,10.5 L77.5,14.3 C77.5,15.6 77.1,16.1 76.1,16.1 L75.5,16.1 L75.5,16.6 L81.6,16.6 L81.6,16.1 L81,16.1 C79.8,16.1 79.5,15.8 79.5,14.3 L79.5,10.3 L83.1,4.8 C83.9,3.5 84.4,2.9 85.6,2.9 L85.6,2.4 L85.6,2.4 Z"></path>
                        <path d="M26.8,16.2 L23.7,16.2 C23.2,16.2 23.1,16 23.1,15.4 L23.1,10 L25.8,10 C27.4,10 27.5,10.9 27.6,12 L28.1,12 L28.1,7.4 L27.6,7.4 C27.5,9 27,9.4 25.7,9.4 L23,9.4 L23,3.4 C23,3 23.1,2.8 23.5,2.8 L26.8,2.8 C28.6,2.8 29.3,3.4 29.5,5.2 L29.8,5.2 L29.6,2.3 L19,2.3 L19,2.8 L19.4,2.8 C20.6,2.8 21,3.1 21,4.7 L21,14.8 C21,15.8 20.7,16 19.3,16 L19,16 L19,16.5 L30,16.5 L31,13.4 L30.7,13.4 C30.1,15.5 29,16.2 26.8,16.2 L26.8,16.2 Z"></path>
                        <path d="M11.1,10 L11.8,10 C12.7,10 13.2,10.4 13.2,11.4 L13.2,15.6 C12.4,16.1 10.8,16.6 9.3,16.6 C5.4,16.6 2.8,13.9 2.8,8.6 C2.8,3.8 5.7,0.6 9.3,0.6 C12.3,0.6 13.9,1.9 14.9,4.5 L15.7,4.5 L15.7,1.8 C14.2,0.7 11.5,0.1 9.5,0.1 C4.3,0.1 0.4,3.9 0.4,8.7 C0.4,13.7 4,17.2 9.5,17.2 C11.6,17.2 13.7,16.7 15.7,15.6 L15.7,11.4 C15.7,10.4 15.8,10.1 16.5,10.1 L17.7,10.1 L17.7,9.6 L11.1,9.6 L11.1,10 L11.1,10 Z"></path>
                        <path d="M61.2,13.6 L56.6,2.4 L52.5,2.4 L52.5,2.9 L52.8,2.9 C54,2.9 54.5,3.4 54.5,4.6 L54.5,14.4 C54.5,15.7 54.1,16.1 52.9,16.1 L52.5,16.1 L52.5,16.6 L57.1,16.6 L57.1,16.1 L56.7,16.1 C55.4,16.1 55,15.8 55,14.3 L55,3.7 L60.6,16.6 L65.7,4.9 L65.6,14.1 C65.6,15.6 65.3,16.1 64.1,16.1 L63.5,16.1 L63.5,16.6 L69.6,16.6 L69.6,16.1 L69.2,16.1 C67.9,16.1 67.5,15.7 67.5,14.2 L67.5,4.6 C67.5,3.2 67.9,2.9 69.3,2.9 L69.6,2.9 L69.6,2.4 L66,2.4 L61.2,13.6 L61.2,13.6 Z"></path>
                        <path d="M92.5,2.2 C88.5,2.2 85.5,5.1 85.4,9.5 C85.4,13.9 88.4,16.8 92.5,16.8 C96.5,16.8 99.7,13.9 99.7,9.5 C99.6,5.1 96.5,2.2 92.5,2.2 L92.5,2.2 Z M92.4,16.3 C89.4,16.3 87.4,13.8 87.4,9.5 C87.4,5.3 89.4,2.7 92.4,2.7 C95.3,2.7 97.6,5.2 97.6,9.5 C97.6,13.8 95.3,16.3 92.4,16.3 L92.4,16.3 Z"></path>
                    </g>
                </g>
            </g>
        </g>
    </g>
</svg>