<svg id="Calque_1" data-name="Calque 1" xmlns="http://www.w3.org/2000/svg" viewBox="0 0 363.2 89.7"><path d="M19.5,4H23a25.79,25.79,0,0,1,3.9.4,18.15,18.15,0,0,1,3.8,1.1,13.85,13.85,0,0,1,3.3,2,9.76,9.76,0,0,1,2.3,3.4,14.81,14.81,0,0,1,.9,5.1,14.35,14.35,0,0,1-.8,4.6,10.48,10.48,0,0,1-2.3,3.8,9.93,9.93,0,0,1-4,2.6,15.25,15.25,0,0,1-5.5,1H17.1a1,1,0,0,0-.9.4,2,2,0,0,0-.4.8V43a24.37,24.37,0,0,0,.1,2.7,3.85,3.85,0,0,0,.6,1.8,2.56,2.56,0,0,0,1.3,1,8.92,8.92,0,0,0,2.2.3v1.4H3.6V48.8a8.52,8.52,0,0,0,2.3-.3,2.56,2.56,0,0,0,1.3-1,10.08,10.08,0,0,0,.6-1.9,12.21,12.21,0,0,0,.1-2.7V11.1a21.75,21.75,0,0,0-.1-2.6c-.2-.7-.4-1.3-.6-1.9a2.12,2.12,0,0,0-1.3-1,19.53,19.53,0,0,0-2.3-.2V4ZM15.7,25.2a1.22,1.22,0,0,0,.4.9,1.09,1.09,0,0,0,.9.4h2.2a12.56,12.56,0,0,0,3.8-.6,10.14,10.14,0,0,0,3.2-1.8,7.41,7.41,0,0,0,2.2-3.3,11.75,11.75,0,0,0,.8-4.9,11.77,11.77,0,0,0-1-5.2,9.63,9.63,0,0,0-2.4-3.2,9.87,9.87,0,0,0-3.2-1.7,15.47,15.47,0,0,0-3.1-.6,6.47,6.47,0,0,0-2,.4,2.94,2.94,0,0,0-1.2,1,4.07,4.07,0,0,0-.5,1.8,20.92,20.92,0,0,0-.1,2.6Z" fill="#ffffff"/><path d="M54.8,4h3.5a17.22,17.22,0,0,1,3.9.4A18.15,18.15,0,0,1,66,5.5a13.85,13.85,0,0,1,3.3,2,8.92,8.92,0,0,1,2.3,3.4,14.81,14.81,0,0,1,.9,5.1,10.6,10.6,0,0,1-.8,4.3,13.24,13.24,0,0,1-2,3.2,9.28,9.28,0,0,1-3,2.3A24.77,24.77,0,0,1,63,27.5l9.2,17.3A9.32,9.32,0,0,0,75,48.2a6.11,6.11,0,0,0,3,.8v1.4H69.3a2.3,2.3,0,0,1-1.4-.4,4.74,4.74,0,0,1-1-1l-10-19a1.23,1.23,0,0,0-1.1-.7c-.4.1-.9.1-1.3.2l-2.2.6A1.72,1.72,0,0,0,51,31.9V43a24.37,24.37,0,0,0,.1,2.7,4.78,4.78,0,0,0,.6,1.8,2.56,2.56,0,0,0,1.3,1,8.92,8.92,0,0,0,2.2.3v1.4H39V48.8a7.32,7.32,0,0,0,2.2-.3,2.56,2.56,0,0,0,1.3-1,6.36,6.36,0,0,0,.6-1.8,12.21,12.21,0,0,0,.1-2.7V11.1a21.75,21.75,0,0,0-.1-2.6,4.78,4.78,0,0,0-.6-1.8,2.12,2.12,0,0,0-1.3-1A8.33,8.33,0,0,0,39,5.4V4ZM51,27.8a.91.91,0,0,0,.4.8.76.76,0,0,0,.9.1l2.2-.6a16.57,16.57,0,0,0,3.7-1.4,14.43,14.43,0,0,0,3.2-2.3,8.66,8.66,0,0,0,2.2-3.5,13.86,13.86,0,0,0,.9-5,11.77,11.77,0,0,0-1-5.2,9.08,9.08,0,0,0-5.6-4.9,15.94,15.94,0,0,0-3-.6c-1.8.1-2.8.6-3.2,1.5A10.52,10.52,0,0,0,51,11Z" fill="#ffffff"/><path d="M97.8,48.7v1.4H81.5V48.7a7.32,7.32,0,0,0,2.2-.3,2.56,2.56,0,0,0,1.3-1,6.36,6.36,0,0,0,.6-1.8,12.21,12.21,0,0,0,.1-2.7V11.1a21.75,21.75,0,0,0-.1-2.6A4.78,4.78,0,0,0,85,6.7a2.12,2.12,0,0,0-1.3-1,8.33,8.33,0,0,0-2.2-.3V4H97.8V5.4a7.8,7.8,0,0,0-2.2.3,2.68,2.68,0,0,0-1.3,1,6.36,6.36,0,0,0-.6,1.8,23.48,23.48,0,0,0-.1,2.6V42.9a24.37,24.37,0,0,0,.1,2.7,4.78,4.78,0,0,0,.6,1.8,2.56,2.56,0,0,0,1.3,1A7.8,7.8,0,0,0,97.8,48.7Z" fill="#ffffff"/><path d="M137.6,4h12.2V5.4a7.32,7.32,0,0,0-2.2.3,2.68,2.68,0,0,0-1.3,1,6.36,6.36,0,0,0-.6,1.8,23.48,23.48,0,0,0-.1,2.6V42.9a24.37,24.37,0,0,0,.1,2.7,4.78,4.78,0,0,0,.6,1.8,2.56,2.56,0,0,0,1.3,1,8.92,8.92,0,0,0,2.2.3v1.4H133.4V48.7a8.52,8.52,0,0,0,2.3-.3,2.56,2.56,0,0,0,1.3-1,6.36,6.36,0,0,0,.6-1.8,12.21,12.21,0,0,0,.1-2.7V13.1a2.92,2.92,0,0,0-.2-.9,1,1,0,0,0-.4-.5c-.2-.1-.4,0-.6.2a2.28,2.28,0,0,0-.6,1.2l-12.8,37h-2L108.1,13a2.38,2.38,0,0,0-.6-1.1c-.2-.2-.3-.2-.4-.2a.55.55,0,0,0-.3.5,2.77,2.77,0,0,0-.1.9V43c0,1,.1,2,.2,3a4.49,4.49,0,0,0,.7,1.8,2.22,2.22,0,0,0,1.3.8,6.48,6.48,0,0,0,1.9.2v1.4h-9.6V48.8a11.08,11.08,0,0,0,1.9-.2,2.22,2.22,0,0,0,1.3-.8,4.84,4.84,0,0,0,.7-1.8,15.14,15.14,0,0,0,.2-3V11.2a10,10,0,0,0-.8-4.5c-.5-.9-1.6-1.4-3.3-1.4V4h11.3l12.2,34.2c.4,1,.8,1,1.1.1Z" fill="#ffffff"/><path d="M163.6,38.5a6.94,6.94,0,0,0-1.3.5,2.54,2.54,0,0,0-.9,1.3l-1,2.6c-.3,1-.6,1.9-.8,2.9a2.78,2.78,0,0,0,0,1.8,2,2,0,0,0,.9.9,3.85,3.85,0,0,0,1.8.2V50h-9.4V48.6a9,9,0,0,0,2.8-.4,3.51,3.51,0,0,0,1.8-2l15-42.3h2l15.1,42.6a2.49,2.49,0,0,0,1.8,1.9,11.48,11.48,0,0,0,3.1.4v1.4H178.1V48.8c1.9,0,3-.4,3.2-1.2s0-2.3-.9-4.7l-2.3-6.7a1.89,1.89,0,0,0-2.4-1ZM171.3,17c-.3-.7-.6-1.1-.9-1.1s-.6.4-.9,1.1l-6.8,19.3a1.7,1.7,0,0,0-.1.7c0,.2.4.2,1.1,0l11.6-3a1.85,1.85,0,0,0,1.2-.7,2.27,2.27,0,0,0-.1-1.8Z" fill="#ffffff"/><path d="M213.8,4h3.5a17.22,17.22,0,0,1,3.9.4A18.15,18.15,0,0,1,225,5.5a13.85,13.85,0,0,1,3.3,2,8.92,8.92,0,0,1,2.3,3.4,14.81,14.81,0,0,1,.9,5.1,10.6,10.6,0,0,1-.8,4.3,13.24,13.24,0,0,1-2,3.2,9.28,9.28,0,0,1-3,2.3,24.77,24.77,0,0,1-3.7,1.7l9.2,17.3a9.32,9.32,0,0,0,2.8,3.4,6.11,6.11,0,0,0,3,.8v1.4h-8.8a2.3,2.3,0,0,1-1.4-.4,4.74,4.74,0,0,1-1-1L215.7,30.3a1.23,1.23,0,0,0-1.1-.7c-.4.1-.9.1-1.3.2l-2.2.6a1.72,1.72,0,0,0-1.3,1.8V43.3a24.37,24.37,0,0,0,.1,2.7,4.78,4.78,0,0,0,.6,1.8,2.56,2.56,0,0,0,1.3,1,8.92,8.92,0,0,0,2.2.3v1.4H197.7V49a7.32,7.32,0,0,0,2.2-.3,2.56,2.56,0,0,0,1.3-1,6.36,6.36,0,0,0,.6-1.8,24.37,24.37,0,0,0,.1-2.7V11.4a21.75,21.75,0,0,0-.1-2.6,4.78,4.78,0,0,0-.6-1.8,2.12,2.12,0,0,0-1.3-1,8.33,8.33,0,0,0-2.2-.3V4.3h16V4ZM210,27.8a.91.91,0,0,0,.4.8.76.76,0,0,0,.9.1l2.2-.6a16.57,16.57,0,0,0,3.7-1.4,14.43,14.43,0,0,0,3.2-2.3,8.66,8.66,0,0,0,2.2-3.5,13.86,13.86,0,0,0,.9-5,11.77,11.77,0,0,0-1-5.2,9.08,9.08,0,0,0-5.6-4.9,15.94,15.94,0,0,0-3-.6c-1.8.1-2.8.6-3.2,1.5A10.52,10.52,0,0,0,210,11Z" fill="#ffffff"/><path d="M258,4.1a24.11,24.11,0,0,1,9.6,1.8,19.53,19.53,0,0,1,7,5,23.07,23.07,0,0,1,4.4,7.4,27.75,27.75,0,0,1,0,18,21.4,21.4,0,0,1-4.4,7.4,21.87,21.87,0,0,1-7,5,26.77,26.77,0,0,1-19.3,0,20.44,20.44,0,0,1-7-5,23.07,23.07,0,0,1-4.4-7.4,27.75,27.75,0,0,1,0-18,21.4,21.4,0,0,1,4.4-7.4,20.44,20.44,0,0,1,7-5A23.23,23.23,0,0,1,258,4.1Zm14.6,23.1a49.56,49.56,0,0,0-.7-8.5,23.38,23.38,0,0,0-2.3-6.9,13.49,13.49,0,0,0-4.5-4.7,16.32,16.32,0,0,0-14.3,0,13.53,13.53,0,0,0-4.5,4.7,20.81,20.81,0,0,0-2.3,6.9,53.23,53.23,0,0,0,0,16.9,23.38,23.38,0,0,0,2.3,6.9,13.49,13.49,0,0,0,4.5,4.7,16.32,16.32,0,0,0,14.3,0,13.53,13.53,0,0,0,4.5-4.7,20.81,20.81,0,0,0,2.3-6.9,46.09,46.09,0,0,0,.7-8.4Z" fill="#ffffff"/><path d="M302.2,4a23.83,23.83,0,0,1,4.6.4,20.57,20.57,0,0,1,4.4,1.4c.4.1.9.3,1.5.5a5.54,5.54,0,0,0,1.8.2,1.82,1.82,0,0,0,1.4-.6,2.47,2.47,0,0,0,.6-1.8h1.7V16.7h-1.7a16.59,16.59,0,0,0-.2-2.4,7.32,7.32,0,0,0-.8-2.5,6.58,6.58,0,0,0-1.7-2.3,8.56,8.56,0,0,0-2.8-2A16.23,16.23,0,0,0,306.8,6a21.83,21.83,0,0,0-4.4-.4,10.6,10.6,0,0,0-4.3.8,7.74,7.74,0,0,0-2.8,1.9,7.85,7.85,0,0,0-1.6,2.8,11.85,11.85,0,0,0-.5,3.2,6.22,6.22,0,0,0,1.8,4.3,17,17,0,0,0,4.7,3.2,58.52,58.52,0,0,0,6.1,2.7c2.2.9,4.3,1.8,6.2,2.8a12.64,12.64,0,0,1,4.7,3.9,10,10,0,0,1,1.6,5.5,11.72,11.72,0,0,1-1.3,5.5,12.7,12.7,0,0,1-3.3,4.3,15.69,15.69,0,0,1-4.9,2.7,17,17,0,0,1-5.9,1,23.16,23.16,0,0,1-4.6-.4,16.17,16.17,0,0,1-4.4-1.4,8.8,8.8,0,0,0-1.5-.5,5.54,5.54,0,0,0-1.8-.2,2.2,2.2,0,0,0-1.5.6,2.11,2.11,0,0,0-.6,1.8H287V37.7h1.5a17.91,17.91,0,0,0,.2,2.4,10.27,10.27,0,0,0,2.4,4.9,8,8,0,0,0,2.9,2,15.67,15.67,0,0,0,4.3,1.5,22.17,22.17,0,0,0,4.5.4,10.6,10.6,0,0,0,4.3-.8,8.12,8.12,0,0,0,2.9-1.9,8.73,8.73,0,0,0,1.7-2.7,8.92,8.92,0,0,0,.5-3.2,6,6,0,0,0-1.8-4.3,19.83,19.83,0,0,0-4.7-3.3,41.82,41.82,0,0,0-6.1-2.7c-2.2-.9-4.3-1.8-6.2-2.7a11.74,11.74,0,0,1-4.6-4,9.28,9.28,0,0,1-1.6-5.5,11.33,11.33,0,0,1,1.3-5.4,12.7,12.7,0,0,1,3.3-4.3,16,16,0,0,1,4.9-2.8A10,10,0,0,1,302.2,4Z" fill="#ffffff"/><path d="M328.8,38.5a6.94,6.94,0,0,0-1.3.5,2.54,2.54,0,0,0-.9,1.3l-1,2.6c-.3,1-.6,1.9-.8,2.9a2.77,2.77,0,0,0,0,1.8,2,2,0,0,0,.9.9,3.85,3.85,0,0,0,1.8.2V50h-9.3V48.6a9,9,0,0,0,2.8-.4,3.51,3.51,0,0,0,1.8-2l15-42.3h2l15,42.6a2.49,2.49,0,0,0,1.8,1.9,11.48,11.48,0,0,0,3.1.4v1.4H343.3V48.8c1.9,0,3-.4,3.2-1.2s0-2.3-.9-4.7l-2.3-6.7a1.89,1.89,0,0,0-2.4-1ZM336.5,17c-.3-.7-.6-1.1-.9-1.1s-.6.4-.9,1.1L328,36.3a1.7,1.7,0,0,0-.1.7c0,.2.4.2,1.1,0l11.6-3a1.85,1.85,0,0,0,1.2-.7,2.27,2.27,0,0,0-.1-1.8Z" fill="#ffffff"/><line x1="236.5" y1="74.4" x2="248.4" y2="74.4" fill="none" stroke="#ffffff" stroke-miterlimit="10"/><line x1="109.8" y1="74.4" x2="121.8" y2="74.4" fill="none" stroke="#ffffff" stroke-miterlimit="10"/><path d="M141.1,66.6v3.8h-.4a4.4,4.4,0,0,0-1.5-2.6,4,4,0,0,0-2.7-.8,4.18,4.18,0,0,0-3.5,1.6,6,6,0,0,0-1.3,4.2,7.19,7.19,0,0,0,1.3,4.6,4.23,4.23,0,0,0,3.5,1.8,4.77,4.77,0,0,0,4.5-2.8l.3.3a4.87,4.87,0,0,1-2.1,2.4,6,6,0,0,1-3.3.9,6.9,6.9,0,0,1-3.2-.8,5.66,5.66,0,0,1-2.3-2.3,7.31,7.31,0,0,1-.8-3.3,7.18,7.18,0,0,1,1.9-5.1,6.34,6.34,0,0,1,4.7-2,12,12,0,0,1,2.4.3c.6.1.9.2,1.1.2a.67.67,0,0,0,.7-.4Z" fill="#ffffff"/><path d="M150.2,77.9V74a2,2,0,0,0-.4-1.3,1.66,1.66,0,0,0-1.2-.5,2.66,2.66,0,0,0-1.2.3,3.26,3.26,0,0,0-1.1,1.2V78c0,.4.1.7.3.8s.5.2,1,.2v.4h-4.2V79a1.2,1.2,0,0,0,1.5-1.5V67.4a1.33,1.33,0,0,0-.3-1c-.2-.2-.6-.2-1.2-.2v-.4l2.6-.3h.4V73a4.71,4.71,0,0,1,1.4-1.2,3.26,3.26,0,0,1,1.4-.4,2.49,2.49,0,0,1,1.9.7,2.72,2.72,0,0,1,.7,2v3.5a1.74,1.74,0,0,0,.3,1.2,1.33,1.33,0,0,0,1,.3v.4H149v-.4a1.61,1.61,0,0,0,1.1-.3A3.14,3.14,0,0,0,150.2,77.9Z" fill="#ffffff"/><path d="M157.2,79.8a2.27,2.27,0,0,1-1.6-.6,2.13,2.13,0,0,1-.7-1.5,1.82,1.82,0,0,1,.6-1.4,5.55,5.55,0,0,1,2.3-1c.7-.2,1.2-.4,1.5-.5v-.6a2.17,2.17,0,0,0-.5-1.4,1.43,1.43,0,0,0-1.3-.5,2.11,2.11,0,0,0-1.3.5,2.55,2.55,0,0,0-.8,1.2l-.4-.1a4,4,0,0,1,1-1.8,3.16,3.16,0,0,1,1.9-.7,3,3,0,0,1,2.1.8,2.86,2.86,0,0,1,.8,2.1v3.4a2.51,2.51,0,0,0,.1,1c.1.2.2.3.4.3a.37.37,0,0,0,.3-.1,1.63,1.63,0,0,0,.3-.6h.4a1.66,1.66,0,0,1-.5,1.2,1.44,1.44,0,0,1-2.4-.7,7.3,7.3,0,0,1-1,.9A4.87,4.87,0,0,1,157.2,79.8Zm2.1-1.8V75.3c-.2.1-.6.2-1,.4-.8.3-1.3.5-1.5.8a1.8,1.8,0,0,0-.3,1.1,1.28,1.28,0,0,0,.4,1,.91.91,0,0,0,.8.4,1.61,1.61,0,0,0,.9-.3A1.58,1.58,0,0,0,159.3,78Z" fill="#ffffff"/><path d="M166.7,71.4v1.3a5.27,5.27,0,0,1,1.4-1,3.19,3.19,0,0,1,1.4-.3,3.37,3.37,0,0,1,2.6,1.2,4.36,4.36,0,0,1,1,3,4.43,4.43,0,0,1-1.1,3,3.63,3.63,0,0,1-2.8,1.2,4,4,0,0,1-2.4-.9v5.2a1.61,1.61,0,0,0,.3,1.1,1.33,1.33,0,0,0,1,.3v.4h-4.2v-.4a2.68,2.68,0,0,0,1.1-.2,1.08,1.08,0,0,0,.3-.9v-11a1.85,1.85,0,0,0-.2-1,2.33,2.33,0,0,0-1.1-.2v-.4l2.5-.2h.2Zm0,2v5a2.7,2.7,0,0,0,2.2,1,2.12,2.12,0,0,0,1.8-1,4.09,4.09,0,0,0,.7-2.5,4.21,4.21,0,0,0-.7-2.6,2.12,2.12,0,0,0-1.8-1A2.41,2.41,0,0,0,166.7,73.4Z" fill="#ffffff"/><path d="M177.9,71.4h.4v6.7a1.22,1.22,0,0,0,.3.9,2.15,2.15,0,0,0,1,.2v.4h-4.4v-.4a2.87,2.87,0,0,0,1.2-.2q.3-.15.3-.9V73.2a1.33,1.33,0,0,0-.3-1c-.2-.2-.6-.2-1.2-.2v-.4Zm-.4-4a1,1,0,1,1-.7.3C177,67.4,177.2,67.4,177.5,67.4Z" fill="#ffffff"/><path d="M184.2,69h.4v2.7h2.8v.6h-2.8v5.1a1.59,1.59,0,0,0,.4,1.2,1.25,1.25,0,0,0,1.1.4,2.24,2.24,0,0,0,1.5-.8l.3.3a3,3,0,0,1-2.4,1.3,2.11,2.11,0,0,1-1.6-.6,2.35,2.35,0,0,1-.6-1.7V72.2h-1.5v-.4A7.62,7.62,0,0,0,184.2,69Z" fill="#ffffff"/><path d="M192.1,71.4v1.7a11,11,0,0,1,1.7-1.3,1.62,1.62,0,0,1,1-.4,2.4,2.4,0,0,1,1.5.6l-.6,1.4a4,4,0,0,0-1.9-.7c-.5,0-1,.3-1.7,1v4.4a1.22,1.22,0,0,0,.3.9c.2.2.5.2,1,.2v.4h-4.2v-.4a1.44,1.44,0,0,0,1.1-.3,1.88,1.88,0,0,0,.3-1.3V73.3a1.61,1.61,0,0,0-.3-1.1c-.2-.2-.6-.2-1.4-.2v-.4l2.8-.2Z" fill="#ffffff"/><path d="M205.8,77.6v.6a5.8,5.8,0,0,1-1.5,1.3,3.42,3.42,0,0,1-1.8.4,4.3,4.3,0,0,1-3.1-1.2,4.35,4.35,0,0,1,0-6,3.78,3.78,0,0,1,2.8-1.2,3.58,3.58,0,0,1,2.4.9,2.84,2.84,0,0,1,1,2.2v.2h-5.8v.1a5.56,5.56,0,0,0,.4,2.3,4.43,4.43,0,0,0,1.2,1.5,2.35,2.35,0,0,0,1.6.5,2.5,2.5,0,0,0,1.3-.3A12,12,0,0,0,205.8,77.6Zm-6-3.2h4.3v-.2a2.35,2.35,0,0,0-.6-1.7,2,2,0,0,0-1.5-.6,1.68,1.68,0,0,0-1.5.7A2.48,2.48,0,0,0,199.8,74.4Z" fill="#ffffff"/><path d="M219,66.8v.4a1.25,1.25,0,0,0-1.1.4,3,3,0,0,0-.3,1.6v8a3,3,0,0,0,.3,1.6,1.25,1.25,0,0,0,1.1.4v.4h-4.6v-.4c.6,0,.9-.1,1.1-.4a3,3,0,0,0,.3-1.6v-8a3,3,0,0,0-.3-1.6c-.2-.3-.6-.4-1.2-.4v-.4Z" fill="#ffffff"/><path d="M225.9,66.8v.4a1.25,1.25,0,0,0-1.1.4,3,3,0,0,0-.3,1.6v8a3,3,0,0,0,.3,1.6,1.25,1.25,0,0,0,1.1.4v.4h-4.6v-.4c.6,0,.9-.1,1.1-.4a3,3,0,0,0,.3-1.6v-8a3,3,0,0,0-.3-1.6c-.2-.3-.6-.4-1.2-.4v-.4Z" fill="#ffffff"/></svg>