<svg id="Calque_1" data-name="Calque 1" xmlns="http://www.w3.org/2000/svg" viewBox="0 0 314.85 150.51"><defs><style>.cls-1{fill:#fff;}.cls-2{fill:none;stroke:#fff;stroke-miterlimit:10;stroke-width:0.5px;}</style></defs><title>typo EB 1 png</title><path class="cls-1" d="M197.58,407.2a1.28,1.28,0,0,1,1,0,1.27,1.27,0,0,1,.7.8,1.4,1.4,0,0,1,0,1q-.69,1.34-1.71,3.36c-.68,1.36-2,3.71-3.85,7.07s-3.83,6.56-5.81,9.59-4.4,6.37-7.25,10a81.92,81.92,0,0,1-8.4,9.35,42.61,42.61,0,0,1-9.06,6.54,19.82,19.82,0,0,1-9.42,2.66,12.67,12.67,0,0,1-7.77-2.34,13,13,0,0,1-4.54-6.76,24,24,0,0,1-1-7.21,42.41,42.41,0,0,1,.9-8.47,58.86,58.86,0,0,1,2.73-9.13,67.94,67.94,0,0,1,4.35-9.17,61.94,61.94,0,0,1,5.94-8.65,56.7,56.7,0,0,1,7.35-7.49q-4.05.15-6.08-1.68a6.06,6.06,0,0,1-2-5q0-3.78,4.38-11.16A125.5,125.5,0,0,1,168.21,366c1.5-1.82,3.06-3.61,4.69-5.39s3.62-3.75,5.95-5.95a38.56,38.56,0,0,1,7-5.32,13.09,13.09,0,0,1,6.34-2c2.42,0,4,1.29,4.69,3.85q1.68,6.38-4.21,21.35A98.57,98.57,0,0,1,187.92,383c-1.7,3.18-3.14,5.09-4.3,5.74a1.72,1.72,0,0,1-2.31-.21,1.24,1.24,0,0,1-.39-1,2.39,2.39,0,0,1,.25-1c.14-.28.37-.7.7-1.26L184,382q.21-.35,3.16-4.55a1,1,0,0,1,.76-.56c.8-1.68,1.54-3.4,2.24-5.18a77.23,77.23,0,0,0,3.71-11.9q1.13-5.25.5-7.84-.5-1.89-2.1-1.89-3.43,0-9.31,4.76a89,89,0,0,0-12.54,13,110,110,0,0,0-10,14.21q-4,6.87-4,9.8a3.65,3.65,0,0,0,1.06,2.94c1.16,1,3.59,1.19,7.27.63a5.11,5.11,0,0,1,1.75-.1,1.24,1.24,0,0,1,1.06.87c.32.75,0,1.4-.85,2a50.49,50.49,0,0,0-7.77,6.9,57.22,57.22,0,0,0-6.44,8.4,74.5,74.5,0,0,0-4.86,9.2,49.92,49.92,0,0,0-3.12,9.28,54.87,54.87,0,0,0-1.22,8.61,19.24,19.24,0,0,0,.8,7.24q2.31,7.22,9.67,7.21a16.5,16.5,0,0,0,6.85-1.61,30.71,30.71,0,0,0,6.8-4.23,66.07,66.07,0,0,0,6.58-6.27,88.12,88.12,0,0,0,6.08-7.31q2.75-3.67,5.46-7.84c1.83-2.78,3.35-5.23,4.59-7.35s2.41-4.24,3.53-6.34,1.88-3.54,2.28-4.34.69-1.37.87-1.75A1.63,1.63,0,0,1,197.58,407.2Z" transform="translate(-140.5 -345.88)"/><path class="cls-1" d="M208.18,415.25q-3.28,5.82-5.53,7.77a6.4,6.4,0,0,1-3.92,2c-1.3,0-2.21-.79-2.73-2.38a11.59,11.59,0,0,1-.56-4,53,53,0,0,1,1.26-10.5,11.44,11.44,0,0,1,.35-1.4,1.28,1.28,0,0,1,.28-1.26,13.67,13.67,0,0,1,.42-1.4,8.9,8.9,0,0,1,.39-1.26,3,3,0,0,1,.59-.87,1.39,1.39,0,0,1,1.05-.46,1.31,1.31,0,0,1,1.33,1,3.21,3.21,0,0,1-.1,2,6.11,6.11,0,0,1-1.23,2.31q-.69,3.15-1.19,6.44a50.84,50.84,0,0,0-.38,5.08,13.1,13.1,0,0,0,.17,2.94,2.46,2.46,0,0,0,.42,1,1.38,1.38,0,0,0,.49-.1,4.31,4.31,0,0,0,1-.63,9.89,9.89,0,0,0,1.36-1.33c.47-.54,1.09-1.35,1.86-2.45a36.25,36.25,0,0,0,2.34-3.89,77.2,77.2,0,0,0,5.39-11.27c.38-1,.91-1.47,1.61-1.47h.07q1.13.08,1.68,1.89,1,3.72,3.36,4.9,3.3,1.75,9.73-.35a1.29,1.29,0,0,1,1.72.84,1.35,1.35,0,0,1-.07,1.05,1.38,1.38,0,0,1-.81.7q-7.48,2.46-11.83.21a8.59,8.59,0,0,1-3.92-4.27A95.56,95.56,0,0,1,208.18,415.25Z" transform="translate(-140.5 -345.88)"/><path class="cls-1" d="M251.58,408.32a1.18,1.18,0,0,1,1,.32,1.35,1.35,0,0,1,.46.94,1.33,1.33,0,0,1-.32,1c-.37.42-.86,1-1.47,1.61s-1.72,1.71-3.36,3.15a50.62,50.62,0,0,1-4.83,3.82,28.76,28.76,0,0,1-5.63,3,16.17,16.17,0,0,1-6.13,1.33,6.37,6.37,0,0,1-4.83-1.82,7,7,0,0,1-1.75-5,20.16,20.16,0,0,1,3.71-11,17.27,17.27,0,0,1,4.06-4.55,7.14,7.14,0,0,1,4.2-1.61,4,4,0,0,1,4.27,4.13,9.59,9.59,0,0,1-2.41,6q-2.42,3-5.22,3a4.68,4.68,0,0,1-4.27-2.52,16.07,16.07,0,0,0-1.61,6.51,4.6,4.6,0,0,0,.91,3.08,3.71,3.71,0,0,0,2.94,1,12.8,12.8,0,0,0,3.89-.66A20.18,20.18,0,0,0,239,418.4a34.25,34.25,0,0,0,3.61-2.34q1.86-1.37,3.18-2.52c.89-.77,1.74-1.55,2.56-2.35s1.36-1.35,1.64-1.68.49-.56.63-.7A1.67,1.67,0,0,1,251.58,408.32Zm-14.91-6.16a4.84,4.84,0,0,0-3,1.4,17.1,17.1,0,0,0-3.12,3.64.86.86,0,0,1,.35.49c.52,1.45,1.31,2.17,2.38,2.17a3.35,3.35,0,0,0,2.21-1.08,9.44,9.44,0,0,0,1.92-2.56,5.73,5.73,0,0,0,.77-2.66,1.42,1.42,0,0,0-.35-1.05A1.5,1.5,0,0,0,236.67,402.16Z" transform="translate(-140.5 -345.88)"/><path class="cls-1" d="M264.88,400.13a1.33,1.33,0,0,1,1,.42,1.35,1.35,0,0,1,.42,1,1.24,1.24,0,0,1-.42,1,1.37,1.37,0,0,1-1,.38q-2.31,0-5.25,3.33a40.91,40.91,0,0,0-5.18,7.42,72.37,72.37,0,0,0-3.85,8.22,1.26,1.26,0,0,1-1.26.84,1.23,1.23,0,0,1-.42-.07,1.32,1.32,0,0,1-.77-.59,1.18,1.18,0,0,1-.14-.95q1.26-6.65,2.17-10.57c.66-3.08,1.24-5.5,1.75-7.28a18.5,18.5,0,0,1,1.23-3.32,1.6,1.6,0,0,1,1.43-.95,1.41,1.41,0,0,1,1.33.77c.42.75.34,2.2-.24,4.34a19.58,19.58,0,0,1-2.21,5.32,1.72,1.72,0,0,1-.35.28c-.09.42-.18.87-.28,1.33Q259.21,400.14,264.88,400.13Z" transform="translate(-140.5 -345.88)"/><path class="cls-1" d="M326.55,407.06a13.77,13.77,0,0,1,5.81,11.62,22,22,0,0,1-3.25,11,37,37,0,0,1-9,10.25,45.68,45.68,0,0,1-14.49,7.91,52.54,52.54,0,0,1-16.87,2.73c-.46,0-1,0-1.54-.07-.23,1.64-.44,3.2-.63,4.69a1.35,1.35,0,0,1-.45.84,1.25,1.25,0,0,1-.88.35h-.14a1.32,1.32,0,0,1-.91-.52,1.39,1.39,0,0,1-.28-1c.14-1.49.33-3,.56-4.62a14.12,14.12,0,0,1-4.37-1.4,10.26,10.26,0,0,1-2.77-2,9,9,0,0,1-1.5-2.17,8.23,8.23,0,0,1-.7-1.68,4,4,0,0,1-.11-.84,1.19,1.19,0,0,1,.32-1,1.41,1.41,0,0,1,1.92-.14,1.41,1.41,0,0,1,.49,1,1.78,1.78,0,0,0,.11.53,9.33,9.33,0,0,0,.52,1.12,6,6,0,0,0,1.12,1.47,8.59,8.59,0,0,0,2.1,1.33,13.53,13.53,0,0,0,3.22,1q4.07-26.38,16.1-58.38,4.77-12.52,9.52-22.89c1.08-2.33,2-4.17,2.66-5.53a22.64,22.64,0,0,1,1.68-2.87,5.51,5.51,0,0,1,.88-1,1.08,1.08,0,0,1,.66-.18,1.44,1.44,0,0,1,1.4.84,2.72,2.72,0,0,1,.18,2,29.25,29.25,0,0,1-.77,3.36,21.86,21.86,0,0,1-2,4.48,38.13,38.13,0,0,1-3.61,5.25,1.39,1.39,0,0,1-1.12.49Q306,383,302.09,393.73t-8.23,25.83a239.2,239.2,0,0,0-6.3,28.24,10.08,10.08,0,0,0,1.19.07,50.41,50.41,0,0,0,11.66-1.33,43.86,43.86,0,0,0,10-3.6,48.74,48.74,0,0,0,8.09-5.22,33.78,33.78,0,0,0,6.09-6.19,28.77,28.77,0,0,0,3.71-6.55,17.22,17.22,0,0,0,1.29-6.3,11.29,11.29,0,0,0-4.69-9.45q-5.52-4.05-16.17-4.06c-.56,0-1,0-1.33,0a2.55,2.55,0,0,1-1.05-.35,1.42,1.42,0,0,1-.7-1,1.76,1.76,0,0,1,.07-.84,1.55,1.55,0,0,1,.53-.63A6.76,6.76,0,0,1,307,402l.77-.35a7.14,7.14,0,0,0,.7-.28,79,79,0,0,0,10.47-6.19,71.54,71.54,0,0,0,9-7.49,56,56,0,0,0,7.1-8.44,41.94,41.94,0,0,0,5.67-11.55,19.75,19.75,0,0,0,.63-10.15,10.52,10.52,0,0,0-2.41-4.86,11.12,11.12,0,0,0-4.59-3,18.72,18.72,0,0,0-6.44-1,27.05,27.05,0,0,0-8.75,1.54,37.06,37.06,0,0,0-8.22,4,59.49,59.49,0,0,0-7.53,5.92,81.51,81.51,0,0,0-6.68,6.82q-2.91,3.36-5.71,7.14a139.71,139.71,0,0,0-14.21,23.59.21.21,0,0,0,.14.07,1.28,1.28,0,0,1,.7.74,1.25,1.25,0,0,1-.07,1.08q-1.82,4-3.92,4a1.35,1.35,0,0,1-1-.42,1.42,1.42,0,0,1-.42-1.05q0-1,1.93-5.21T280,385.75a142.8,142.8,0,0,1,8.36-12.85q2.94-4,6-7.59a88.64,88.64,0,0,1,7.11-7.21,62.53,62.53,0,0,1,8.05-6.3,39.58,39.58,0,0,1,8.82-4.27,29,29,0,0,1,9.48-1.65,18.66,18.66,0,0,1,10.68,2.87,12.86,12.86,0,0,1,5.42,8.12,21.81,21.81,0,0,1-.49,10.75A43.64,43.64,0,0,1,338,379.76,59.79,59.79,0,0,1,327.29,392a75.44,75.44,0,0,1-15.23,10.53Q321.24,403.14,326.55,407.06Z" transform="translate(-140.5 -345.88)"/><path class="cls-1" d="M361.83,406.78a1.42,1.42,0,0,1,1.05.14,1.27,1.27,0,0,1,.63.81,1.24,1.24,0,0,1-.14,1c-.65,1.08-1.35,2.22-2.1,3.43s-1.85,2.89-3.32,5-2.89,4-4.24,5.56a28.13,28.13,0,0,1-4.41,4.2,7.2,7.2,0,0,1-4.13,1.82,4.3,4.3,0,0,1-2.45-.7,5.49,5.49,0,0,1-1.75-2,13.17,13.17,0,0,1-1.05-5.81q0-6.23,2.63-16.06a189.74,189.74,0,0,1,6.33-19.43,144.5,144.5,0,0,1,7.14-16A26.57,26.57,0,0,1,359.8,363a4.07,4.07,0,0,1,2.66-1.47,1.52,1.52,0,0,1,1.33.77,2.31,2.31,0,0,1,.18.49,5.16,5.16,0,0,1,0,.81,6.43,6.43,0,0,1-.39,1.57c-.23.66-.56,1.5-1,2.52s-1,2.36-1.82,4-1.73,3.53-2.8,5.67q-5.46,10.57-10,18.48l-.14.14a136.1,136.1,0,0,0-4.27,16.35q-1.33,7.17-.7,10.81a6.8,6.8,0,0,0,.53,1.68,2.42,2.42,0,0,0,.66.88,2.36,2.36,0,0,0,.56.31,1.74,1.74,0,0,0,.56.07q2.38,0,7.14-5.91A99.44,99.44,0,0,0,361,407.41,1.35,1.35,0,0,1,361.83,406.78ZM359,369.05c-1.21,2.2-2.5,4.81-3.85,7.84C356.65,373.86,357.94,371.25,359,369.05Z" transform="translate(-140.5 -345.88)"/><path class="cls-1" d="M385.18,407.52a1.29,1.29,0,0,1,.77.7,1.42,1.42,0,0,1,.07,1,1.38,1.38,0,0,1-.74.8q-7,3.44-12.6,1.26a19.83,19.83,0,0,1-2.9,8.09q-2.28,3.54-5.57,3.67h-.28a4.88,4.88,0,0,1-4.55-2.59,11.26,11.26,0,0,1-.66-7.21,21.55,21.55,0,0,1,3.11-7.77c2.05-3.17,4.25-4.66,6.58-4.48a1.52,1.52,0,0,1,.95.49,1.18,1.18,0,0,1,.31,1v.14c2.05.33,3.13,2.22,3.22,5.67v.14q4.62,2.31,11.2-.84A1.4,1.4,0,0,1,385.18,407.52Zm-21,12.84c1.45,0,2.74-1.17,3.89-3.39a19.25,19.25,0,0,0,2.06-7.11,4.24,4.24,0,0,1-.77-.63,7.46,7.46,0,0,1-2-2.69,3.73,3.73,0,0,1-.25-2.56,8.32,8.32,0,0,0-3,3.08,18.52,18.52,0,0,0-2.66,6.65c-.46,2.43-.35,4.25.35,5.46A2.37,2.37,0,0,0,364.14,420.36Z" transform="translate(-140.5 -345.88)"/><path class="cls-1" d="M408.21,407.52a1.29,1.29,0,0,1,.77.7,1.42,1.42,0,0,1,.07,1,1.38,1.38,0,0,1-.74.8q-7,3.44-12.6,1.26a19.83,19.83,0,0,1-2.9,8.09q-2.28,3.54-5.57,3.67H387a4.88,4.88,0,0,1-4.55-2.59,11.26,11.26,0,0,1-.66-7.21,21.55,21.55,0,0,1,3.11-7.77c2.05-3.17,4.25-4.66,6.58-4.48a1.54,1.54,0,0,1,.95.49,1.18,1.18,0,0,1,.31,1v.14c2.05.33,3.13,2.22,3.22,5.67v.14q4.62,2.31,11.2-.84A1.4,1.4,0,0,1,408.21,407.52Zm-21,12.84c1.45,0,2.74-1.17,3.89-3.39a19.25,19.25,0,0,0,2.06-7.11,4.24,4.24,0,0,1-.77-.63,7.46,7.46,0,0,1-2-2.69,3.73,3.73,0,0,1-.25-2.56,8.32,8.32,0,0,0-3,3.08,18.52,18.52,0,0,0-2.66,6.65q-.7,3.65.35,5.46A2.37,2.37,0,0,0,387.17,420.36Z" transform="translate(-140.5 -345.88)"/><path class="cls-1" d="M453.71,407.55a1.23,1.23,0,0,1,1,.18,1.27,1.27,0,0,1,.6.84,1.39,1.39,0,0,1-.18,1,15.09,15.09,0,0,1-.84,1.26c-.37.52-1,1.35-2,2.49a30.4,30.4,0,0,1-2.91,3,16.13,16.13,0,0,1-3.53,2.38A8.65,8.65,0,0,1,442,419.8a6.65,6.65,0,0,1-3.15-.7,6.51,6.51,0,0,1-2-1.54,7.08,7.08,0,0,1-1.19-2.34,16.88,16.88,0,0,1-.63-2.31c-.09-.54-.21-1.27-.35-2.21-.05-.65-.09-1.12-.14-1.4a52.62,52.62,0,0,0-3.78,5.6,74.67,74.67,0,0,1-5.11,7.53c-1.21,1.47-2.38,2.2-3.5,2.2a1.77,1.77,0,0,1-1.47-.7,3.78,3.78,0,0,1-.73-2.31,24.16,24.16,0,0,1,.1-3.81q.21-2.21.84-6.62,1.34-9.66.91-11.41-2.38.78-6.37,7.42a142.89,142.89,0,0,0-6.72,12.74c-.19.42-.33.73-.42.91s-.2.41-.31.67a4.79,4.79,0,0,1-.32.59l-.31.63a2.58,2.58,0,0,1-.32.46,1.31,1.31,0,0,1-.45.35,1.54,1.54,0,0,1-.6.1,1.43,1.43,0,0,1-1.4-1q-.84-1.95,1.54-12.39,2.52-10.84,5-13.3a1.55,1.55,0,0,1,1.58-.45,1.47,1.47,0,0,1,1.08,1.22c.23.89,0,2.31-.73,4.27a14.69,14.69,0,0,1-3.26,5.18c-.75,2.66-1.38,5.42-1.89,8.26a94.83,94.83,0,0,1,7.91-13.75c2.29-3.1,4.41-4.66,6.37-4.66a2.1,2.1,0,0,1,1.61.7,4.27,4.27,0,0,1,.84,2.56,24.42,24.42,0,0,1-.1,4.2q-.26,2.42-.88,7-1.19,8.19-1,10.08,1.47-1.19,5.81-8.12a69.61,69.61,0,0,1,4-6,3.32,3.32,0,0,1,2.41-1.51,1.79,1.79,0,0,1,1,.28,2.71,2.71,0,0,1,.67.63,4.14,4.14,0,0,1,.45,1,5.66,5.66,0,0,1,.25,1.12c0,.3.08.73.17,1.29a14.82,14.82,0,0,0,1.3,5.11,3.42,3.42,0,0,0,3.32,1.61,7.36,7.36,0,0,0,4.34-1.82,24.55,24.55,0,0,0,3.92-3.64,29.82,29.82,0,0,0,2.59-3.5A1.72,1.72,0,0,1,453.71,407.55Z" transform="translate(-140.5 -345.88)"/><path class="cls-1" d="M262.68,474.92v4.27h-.43a5.5,5.5,0,0,0-1.64-2.93,4.59,4.59,0,0,0-3-.94,4.72,4.72,0,0,0-3.87,1.76,7.21,7.21,0,0,0-1.43,4.69,8.29,8.29,0,0,0,1.51,5.17,4.77,4.77,0,0,0,3.95,2,5.28,5.28,0,0,0,5-3.15l.38.35a5.77,5.77,0,0,1-2.32,2.71,6.83,6.83,0,0,1-3.66,1,7.29,7.29,0,0,1-3.59-.92,6.4,6.4,0,0,1-2.56-2.52,7.52,7.52,0,0,1-.89-3.69,8,8,0,0,1,2.1-5.66,7,7,0,0,1,5.29-2.24,12.85,12.85,0,0,1,2.73.38,6.29,6.29,0,0,0,1.28.22.79.79,0,0,0,.77-.45Z" transform="translate(-140.5 -345.88)"/><path class="cls-1" d="M272.14,487.6v-4.38a2,2,0,0,0-.49-1.4,1.68,1.68,0,0,0-1.29-.53,2.39,2.39,0,0,0-1.34.39,4.87,4.87,0,0,0-1.24,1.3v4.85a1.15,1.15,0,0,0,.32.94,1.85,1.85,0,0,0,1.16.26v.42h-4.75V489c.68,0,1.11-.12,1.29-.33a2.17,2.17,0,0,0,.29-1.37V475.8a1.47,1.47,0,0,0-.29-1.07,2.13,2.13,0,0,0-1.29-.26v-.42l2.86-.3h.41v8.37a6.45,6.45,0,0,1,1.55-1.37,3,3,0,0,1,1.55-.4,2.92,2.92,0,0,1,2.13.83,3.05,3.05,0,0,1,.83,2.24v3.91a2.26,2.26,0,0,0,.28,1.37,1.48,1.48,0,0,0,1.14.33v.42h-4.6V489a1.76,1.76,0,0,0,1.19-.28A1.66,1.66,0,0,0,272.14,487.6Z" transform="translate(-140.5 -345.88)"/><path class="cls-1" d="M279.18,489.73a2.53,2.53,0,0,1-1.78-.69,2.18,2.18,0,0,1-.74-1.67,2,2,0,0,1,.64-1.53,6.57,6.57,0,0,1,2.6-1.15,8.57,8.57,0,0,0,1.66-.59v-.66a2.29,2.29,0,0,0-.53-1.56,1.87,1.87,0,0,0-1.44-.59,2.28,2.28,0,0,0-1.46.51,2.76,2.76,0,0,0-.89,1.4l-.45-.13a3.4,3.4,0,0,1,1.17-2,3.16,3.16,0,0,1,2.1-.75,3,3,0,0,1,3.2,3.25v3.8a3.78,3.78,0,0,0,.1,1.09.4.4,0,0,0,.4.28.38.38,0,0,0,.32-.16,2.81,2.81,0,0,0,.28-.69h.43a2.19,2.19,0,0,1-.52,1.32,1.61,1.61,0,0,1-1.21.49,1.55,1.55,0,0,1-1.5-1.26,4.71,4.71,0,0,1-1.17,1A2.54,2.54,0,0,1,279.18,489.73Zm2.38-2.08v-3c-.25.1-.62.24-1.1.4a4,4,0,0,0-1.7.9,1.81,1.81,0,0,0-.37,1.2,1.71,1.71,0,0,0,.4,1.14,1.18,1.18,0,0,0,.94.48,2,2,0,0,0,1-.32A1.82,1.82,0,0,0,281.56,487.65Z" transform="translate(-140.5 -345.88)"/><path class="cls-1" d="M289,480.35v1.49a6.23,6.23,0,0,1,1.54-1.15,3.38,3.38,0,0,1,1.54-.34,3.62,3.62,0,0,1,2.86,1.31,5.31,5.31,0,0,1-.11,6.71,4.1,4.1,0,0,1-3.15,1.36,4.43,4.43,0,0,1-2.68-1.05v5.82a1.68,1.68,0,0,0,.31,1.19,1.78,1.78,0,0,0,1.17.29v.41h-4.74V496a2.07,2.07,0,0,0,1.23-.26,1.19,1.19,0,0,0,.32-1V482.42a1.61,1.61,0,0,0-.27-1.14,2.16,2.16,0,0,0-1.28-.24v-.42l2.83-.27Zm0,2.15V488a3.27,3.27,0,0,0,2.45,1.1,2.39,2.39,0,0,0,2-1.11,4.62,4.62,0,0,0,.8-2.76,5.07,5.07,0,0,0-.8-2.94,2.42,2.42,0,0,0-2-1.16A3.23,3.23,0,0,0,289,482.5Z" transform="translate(-140.5 -345.88)"/><path class="cls-1" d="M300.79,480.35h.43v7.46a1.21,1.21,0,0,0,.31,1,2,2,0,0,0,1.16.24v.42h-4.84V489a2.49,2.49,0,0,0,1.36-.24,1.2,1.2,0,0,0,.31-1v-5.45a1.46,1.46,0,0,0-.28-1.07,2.38,2.38,0,0,0-1.39-.25v-.42Zm-.39-4.58a1,1,0,0,1,.76.32,1.1,1.1,0,0,1-.76,1.86,1.07,1.07,0,0,1-.78-.33,1,1,0,0,1-.33-.77,1,1,0,0,1,.32-.76A1.1,1.1,0,0,1,300.4,475.77Z" transform="translate(-140.5 -345.88)"/><path class="cls-1" d="M307.06,477.59h.43v3h3.08v.65h-3.08v5.7a2.07,2.07,0,0,0,.41,1.37,1.5,1.5,0,0,0,1.19.48,2.17,2.17,0,0,0,1.65-.85l.28.33a3.39,3.39,0,0,1-2.68,1.48,2.47,2.47,0,0,1-1.84-.72,2.55,2.55,0,0,1-.71-1.86v-5.93h-1.67v-.43A6.65,6.65,0,0,0,307.06,477.59Z" transform="translate(-140.5 -345.88)"/><path class="cls-1" d="M315.22,480.35v1.92a16.35,16.35,0,0,1,1.89-1.49,2.26,2.26,0,0,1,1.13-.43,2.42,2.42,0,0,1,1.63.7l-.67,1.57a5.15,5.15,0,0,0-2.1-.78,3.06,3.06,0,0,0-1.88,1.08v4.86a1.27,1.27,0,0,0,.3,1,1.85,1.85,0,0,0,1.17.26v.42H312V489a1.78,1.78,0,0,0,1.21-.29,2.25,2.25,0,0,0,.29-1.41v-4.84a1.6,1.6,0,0,0-.31-1.19,2.81,2.81,0,0,0-1.52-.26v-.42l3.1-.27Z" transform="translate(-140.5 -345.88)"/><path class="cls-1" d="M329.7,487.18v.64a5.23,5.23,0,0,1-1.64,1.47,4.25,4.25,0,0,1-2,.44,4.77,4.77,0,0,1-3.43-1.3,4.4,4.4,0,0,1-1.35-3.31,4.78,4.78,0,0,1,1.29-3.39,4.15,4.15,0,0,1,3.16-1.38,3.87,3.87,0,0,1,2.68,1,3.22,3.22,0,0,1,1.15,2.48v.18h-6.51v.12a6.6,6.6,0,0,0,.45,2.55,3.76,3.76,0,0,0,1.3,1.69,3,3,0,0,0,1.78.61,2.87,2.87,0,0,0,1.48-.36A8.3,8.3,0,0,0,329.7,487.18Zm-6.65-3.56h4.82v-.17a2.59,2.59,0,0,0-.67-1.88,2.29,2.29,0,0,0-1.69-.69,2.19,2.19,0,0,0-1.73.73A3.19,3.19,0,0,0,323.05,483.62Z" transform="translate(-140.5 -345.88)"/><path class="cls-1" d="M343,475.13v.41a1.47,1.47,0,0,0-1.27.5,3.35,3.35,0,0,0-.35,1.79v8.93a3.31,3.31,0,0,0,.35,1.78A1.46,1.46,0,0,0,343,489v.42h-5.15V489a1.44,1.44,0,0,0,1.28-.49,3.26,3.26,0,0,0,.35-1.78v-8.93a3.41,3.41,0,0,0-.34-1.8,1.45,1.45,0,0,0-1.29-.49v-.41Z" transform="translate(-140.5 -345.88)"/><line class="cls-2" x1="98.93" y1="136.78" x2="79.1" y2="136.78"/><line class="cls-2" x1="233.02" y1="136.78" x2="213.16" y2="136.78"/></svg>
