<svg id="Calque_1" data-name="Calque 1" xmlns="http://www.w3.org/2000/svg" viewBox="0 0 1006.69 114.95"><defs><style>.cls-1{fill:#f5ead1;}</style></defs><path class="cls-1" d="M91.74,127.61c0,.43.16,1.18-.24,1.19-.22,0-2.79.12-3.65.09a16.64,16.64,0,0,0-1.73,0c-.57.05-9.24,0-14.41,0a40.32,40.32,0,0,1-3.51-4.13c-.62-1-2.69-2.45-3.21-3.57a34.84,34.84,0,0,0-2.27-3.37A30.52,30.52,0,0,0,59.8,114c-.89-1-5.35-7-5.21-7.67s-.45-.81-.7-1.22a13,13,0,0,0-1-1.68c-.44-.51-2.74-4.19-3.13-5-1-2-4.64-7.22-5.09-7.94-.35-.55-.55-1.17-.85-1.75a14,14,0,0,0-1-1.47H39.36c-1.51,0-8,0-8,0,0,.56,0,10.92,0,10.92h0c-.6,1.58-.31,3.21-.32,4.82s.07,3.51.12,5.26c0,.7.08,2.37.08,2.37h0a6.6,6.6,0,0,0,.05,1.68,12.18,12.18,0,0,1,.2,2.39c.1,1.67.08,3.34.15,5,0,.53.14,3.22,3.72,4.89.16.08,1.87.65,2.45.78a9.33,9.33,0,0,0,4.17.13l.28-.08a2,2,0,0,1,.12,1c0,.32.08.27.15.28.4.08.32.94.36,1.54s0,1-.28,1c-.76,0-1.53-.33-2.29-.34h0c-.49-.1-1,.19-1.48.13-.87-.11-4.57-.13-5.55-.25a15.76,15.76,0,0,0-3.5.1c-1,.1-2,.31-3,.35a23.57,23.57,0,0,1-2.43-.46c-.25,0-5.08-.24-6-.13a8.88,8.88,0,0,1-2.19-.09,10.36,10.36,0,0,0-3.72.19c-.66.07-4.15,0-4.15,0-.51.08-.32-.67-.65-1.54a1.65,1.65,0,0,1,.78-2c.87-.34,3.2.29,5.94-.6s4.51-5,5-8.23a15.51,15.51,0,0,1-.12-2c.08-2.09-.22-4.17,0-6.29.22-2.35-.06-4.73,0-7.1.08-2.84-.08-5.68-.24-8.52-.14-2.41-.36-4.82-.41-7.23,0-1.67.15-3.38.25-5.06,0-.61,0-1.23,0-1.84a3.75,3.75,0,0,1,.44-2.18c.41-.63.13-1.62.18-2.45.06-1.14.24-2.29.19-3.43a12.52,12.52,0,0,0-.15-3.51h0a11.62,11.62,0,0,0,.05-2,22.79,22.79,0,0,1,.23-4.45,36,36,0,0,0-.12-6.15,20.2,20.2,0,0,0-.78-4.08,6.49,6.49,0,0,0-2.46-4.13,8.85,8.85,0,0,0-2.62-1c-.52-.13-1-.23-1.54-.31a26.64,26.64,0,0,0-3.86-.23A.39.39,0,0,1,7.92,44a7.74,7.74,0,0,0,0-1.36,8.6,8.6,0,0,0-.19-.88c-.12-.43.07-.66.4-.66s6-.23,8.36-.15c2.19.05,4.37.28,6.57.21,1.13,0,6.69.07,8.29.07a13.28,13.28,0,0,1,2.57.27A13.77,13.77,0,0,0,36,41.31h0a36.65,36.65,0,0,1,11.86.58l.13,0a18.44,18.44,0,0,1,5.14,0c6.71,1.58,8.7,3,9.68,3.63.52.31.75.93,1.15,1.42.27.33.89.47,1.29.79a16.79,16.79,0,0,1,3.32,3.51,9.84,9.84,0,0,1,.61,1h0c0,.52,1.48,2.06,1.66,2.35s1.8,5.67,1.51,7.81c.53,2.51.31,6.92-3.28,12.6a21.82,21.82,0,0,1-4.54,4.83,0,0,0,0,1,0,0h0a31.7,31.7,0,0,1-4.26,2.86,26.46,26.46,0,0,1-4.72,1.85,3.22,3.22,0,0,0-.82.28L55.48,86c1.78,2.1,2.79,4.31,4.27,6.61,1.94,3,5.2,7.79,5.43,8.39s.52,1.36.54,1.45,1.06,1.47,1.59,1.56.81.92,1,1.52c0,.07,1.15,1.23,1.52,1.61l2,2.86s2.25,3.09,2.38,3.28c.56.84,3.18,3.93,3.79,4.74a23.93,23.93,0,0,0,3,2.83,17.14,17.14,0,0,0,5.87,3.84c2.82,1,4.9.52,5,1.42ZM57,72.92a5.53,5.53,0,0,1,1-1.45c.75-.93.92-3.22,1-3.54a36,36,0,0,0,.32-4c0-.33,0-.66.07-1a22.87,22.87,0,0,0-1-7.06c-1.13-2.82-2.53-5.18-4.51-6.6-1.32-.94-1.75-1.28-3.08-2.22A11.86,11.86,0,0,0,48,46c-.5-.05-4.08-.66-5.74-.84-1.32-.13-3.15,0-4.61,0-2.07.21-4.17.35-6.22.73,0,.09.43,10.14.46,12,0,.94-.22,5.56-.25,6.87a9.71,9.71,0,0,1-.32,2.12,8.45,8.45,0,0,0,.13,1.75c0,1.84,0,3.67-.05,5.51,0,.43,0,8.45,0,8.57a53.44,53.44,0,0,0,6.54.59,10.63,10.63,0,0,0,2.7-.15c6-.87,6.23-1.16,9.16-2.48A15.66,15.66,0,0,0,54,76.76,22.08,22.08,0,0,0,57,72.92Zm6-22.2c.24.37,1.18,1.74,1,2.22s2.37,2.2,2.48,3.9h0c-.16.74-.54,2.92-.61,3.64.1.29.3,1.35.3,1.35a7.59,7.59,0,0,0,0,2,7.09,7.09,0,0,1,.49,2.07h0c0,.38.16,1.32.16,1.32l-.1,1.37c.12.2.26,1.1-.09,1.29s.43.74.43.78a8.78,8.78,0,0,0,.67-2.75,29.58,29.58,0,0,0-.19-4.85c-.1-1.14,0-2.31-.17-3.46-.06-.41-.18-.82-.26-1.22s-.31-.9,0-1.53-.23-1.05-.41-1.52a6.59,6.59,0,0,0-1-2c-.49-.57-1.63-1.62-1.63-1.62C63.77,51.43,63,50.75,63,50.72Z" transform="translate(-7.55 -15.3)"/><path class="cls-1" d="M174.81,110.89c-.36,1.13-2.5,6.54-3,8.2-1.06,3.86-2.08,9.92-2.2,9.95-.28.09-65.6.22-65.68-.07,0-.13,0-.26,0-.39s.15-.22.06-.26c-.26-.12-.12-.51-.13-.7a8,8,0,0,1,0-1,.39.39,0,0,1,.43-.44c1.18-.07,3.07-.79,3.58-.59.75.29,2.21-.15,3.33-.44a5.35,5.35,0,0,0,3.09-2,5.62,5.62,0,0,0,.83-2.06,36.29,36.29,0,0,0,.44-4.08c.09-2,.08-16.06.16-18.38,0-1.3,0-15.39-.14-17.06.06-2,.31-25.59.37-26.37.12-1.49-.18-6.63-1.28-7.93a6.59,6.59,0,0,0-2.57-1.69,18.32,18.32,0,0,0-4.07-.42l-.28,0c-.05,0-2.72-.27-3.19-.29h-.34l-.25-.06a10.51,10.51,0,0,1,0-1.61,2.81,2.81,0,0,1,.41-1.69,9.31,9.31,0,0,0,1.35-.15s1.57-.08,1.71-.07c1.27.14,9.42,0,12.14.09.65,0,25.76-.23,28.13-.09,0,0,17.18,0,17.31,0s.63.11.63.12a3.93,3.93,0,0,1,.13.47s.16,8.4.09,10.11a39.76,39.76,0,0,0,0,5.12c.05.62.1,1.25.14,1.87,0,.35,0,.7,0,1.06a.68.68,0,0,1-.63.73,10.5,10.5,0,0,1-1.93.52.94.94,0,0,1-.35-.2c-.16-.15,0-.36,0-.56a1.54,1.54,0,0,1-.32-.31,10.72,10.72,0,0,1-.28-1.44,5.55,5.55,0,0,0-.17-1.07,19.16,19.16,0,0,0-.9-3.07,32.45,32.45,0,0,0-2-3.14c-.22-.26-2.08-4.42-10.32-5.67-2-.31-18.78-.68-20.85-.51.12,1.45,0,35.78,0,35.78s0,.64,0,.67c.64,0,1.47-.56,2.81-.74s14.44,0,14.45,0c6.15-.49,7.68-3.5,8.46-4.73s1.25-5.42,1.32-5.71a3.07,3.07,0,0,1,.2-.5c.31-.1,2.2-.22,2.39.13,0,0-.17,4.32-.17,5.57,0,.19-.33,4.11-.29,8.67,0,6.32.46,13.81.46,13.81l-2.53-.09s-.06-1.67,0-2.68a9.31,9.31,0,0,0-.83-4.09c-.53-1.15-1-3.77-5-4.43s-19.22-.85-21.26-.78c0,0,.11,28.55.18,29.85a27.22,27.22,0,0,0,.71,4.08c.27,1.11,2.17,3.2,5.8,4.23,4.44,1.21,11.13.73,11.91.7s6.6-.15,7.43-.13c1.35,0,6.73-.68,9.17-2.6,4.58-4,7.78-11,7.78-11.32l.46-.85c0-.11.1-.22.14-.32a9,9,0,0,1,1.64.27c.52.12,1.12.28,1.21.59A2.4,2.4,0,0,0,174.81,110.89ZM125.49,50.58c0-.44,0-.88,0-1.31a3.1,3.1,0,0,0-1.22.7c-.13.12-.23.26-.35.38a.77.77,0,0,1-.32.17c.4,2,0,5.12.11,7.13.08,1.65,1,3.14,1.45,2.5C125.34,57,125.44,53.77,125.49,50.58Zm3.11-14.45c-.18-.38,1.48-1.79,2.87-3.23.41-.42,4.13-3.42,5.48-4.71,1.9-1.84,2.72-3,4.5-5,1.14-1.26,6.32-7.27,8.71-7.73h0a4.19,4.19,0,0,1,2.22-.1h0a3,3,0,0,1,1.86,1.07,4.88,4.88,0,0,1,.78,4.42,3.61,3.61,0,0,1-1.9,2.56c-1.43.91-8.91,6-10,6.72-2.17,1.56-10.66,6-10.75,6.07a1.14,1.14,0,0,1-.59.09C129.36,36.45,128.79,36.51,128.6,36.13Z" transform="translate(-7.55 -15.3)"/><path class="cls-1" d="M260.22,39.12c0,.24-.45,5.86-.46,6a12.48,12.48,0,0,0-.41,3.41c.28.83-.07,4.39-.05,4.53a20.05,20.05,0,0,0-.15,3.09c0,.35-.47.44-.51.76s-.39.24-1.14.24c-.31,0-.26.2-.29.23s-.48.11-.88.13a.88.88,0,0,1-.46-.07,1.25,1.25,0,0,1-.24-.57,5.67,5.67,0,0,1,0-.62,15.19,15.19,0,0,0-1.09-5.94,4.73,4.73,0,0,0-1.59-2c-1.24-.92-1.49-1.32-3.27-1.54-.27,0-2.45-.67-3.29-.37s-9.09-.1-14.11-.4a24.43,24.43,0,0,1-5.75.22s0,12.2.12,12.85a20.19,20.19,0,0,1,.16,2.46c0,1.56-.15,3.12-.18,4.68a22,22,0,0,0-.25,2.23s-.61,6-.89,9.07a4.62,4.62,0,0,0,.1,1.05,5,5,0,0,1,0,2.14c1.16,5.32.73,16.8.75,17.13h0c-.53,1.62-.17,3.24-.11,4.86s.21,3.52.33,5.29c0,.62-.25,7.62-.2,8.29s.44,1.22.52,1.85.06,1.37.17,2c.7,4.06,3.63,4.64,5.49,5,.45.09,4.1.35,4.36.38.67.07.18.74.46.63s.6-.07.42,1.19c0,.31.06.27.13.29.26.07.15,1,.14,1-.08.27-.79.25-.86.27a25,25,0,0,1-2.74.34,39.28,39.28,0,0,1-5.18-.4c-8.45-.48-18,.77-19.77.35s-6,0-6.35-.36a2.26,2.26,0,0,1-.4-1.7c0-.17-.09-.34-.13-.51-.11-.44.23-1.06.76-1a13.42,13.42,0,0,0,7.24-1.13,5.72,5.72,0,0,0,2.93-3.43c1-2.71.19-2.52.27-3.69.15-2.07-.08-4.14.2-6.23.31-2.31.11-4.68.26-7,.18-2.81.1-5.61,0-8.41-.09-2.38-.27-4.75-.31-7.12,0-1.65.15-3.3.2-5,0-.6,0-1.2,0-1.8a3.77,3.77,0,0,1,.37-2.17c.39-.63.08-1.59.1-2.41a32.26,32.26,0,0,0,.07-3.4,11.9,11.9,0,0,0-.28-3.47h0a11.23,11.23,0,0,0,0-2,20.58,20.58,0,0,1,.11-4.44c.12-4.14-.37-8.2-.3-12.33,0-1.67,0-5.47,0-5.47H202.57c-2,0-5.95.07-6.85.09-2,.06-4.05.3-5.6,1.63-1.21,1-2.28.51-3.41,1.63A10.07,10.07,0,0,0,185.57,52a21.64,21.64,0,0,0-1,2.79c-.2.84-.57,1.92-.78,2.63s-1.73.67-2.52.74c-.29,0-1,.12-1.08-.5a2.74,2.74,0,0,1,.16-1.44,14.31,14.31,0,0,0,.32-1.81,27.45,27.45,0,0,0,.22-3.73c0-.68.24-3.06.29-3.58s-.11-2.66-.08-3c.07-.85.24-1.68.36-2.51a8.26,8.26,0,0,0,.31-2.68l-.18-.83c-.11-.54.45-.54.63-.62.92-.35,1.65-.4,1.85-.13a10.22,10.22,0,0,0,2.09,2.44,5.83,5.83,0,0,0,3.77,1.09c1.67-.19,4.74.2,6.41.06.27,0,4.34-.33,4.87-.35a11.5,11.5,0,0,1,2.35.42,27.62,27.62,0,0,0,3.08-.59c.61,0,2,.44,3,.54,1.45.14,13.61.16,16.83-.24a48.8,48.8,0,0,1,9.58.06l4.8,0s7.11.43,9.34,0a27.41,27.41,0,0,1,3.74-.44,4,4,0,0,0,1-.23,5.25,5.25,0,0,0,1.09-.48c.79-.46,1.3-2.09,1.69-2s2.12-.31,2.3,0C260.45,38,260.21,38.57,260.22,39.12Zm-71.56,6.31c-.12,0-.26,0-.27-.43-.63.13-1.31-.2-1.84.06a1.9,1.9,0,0,1-2-.72.68.68,0,0,1-.23.61c-.23.23.68.85.25.91s0,.48.05.58.3.22.11.45c-.63.07-.07.32-.27.64s.2.49.2.49h0s2.6-1.87,3.28-2.3A2.45,2.45,0,0,1,188.66,45.43Z" transform="translate(-7.55 -15.3)"/><path class="cls-1" d="M356.7,127.61c0,.43.17,1.18-.24,1.19-.21,0-2.79.12-3.64.09a16.83,16.83,0,0,0-1.74,0c-.57.05-9.23,0-14.4,0a41.6,41.6,0,0,1-3.52-4.13c-.62-1-2.69-2.45-3.21-3.57a34.74,34.74,0,0,0-2.26-3.37,31.57,31.57,0,0,0-2.93-3.88c-.88-1-5.34-7-5.2-7.67s-.45-.81-.7-1.22a13,13,0,0,0-1-1.68c-.44-.51-2.74-4.19-3.13-5-1-2-4.63-7.22-5.08-7.94-.35-.55-.55-1.17-.85-1.75a15.21,15.21,0,0,0-1-1.47h-3.46c-1.5,0-8,0-8,0,0,.56,0,10.92,0,10.92h0c-.6,1.58-.31,3.21-.31,4.82s.07,3.51.11,5.26c0,.7.08,2.37.08,2.37h0a7.07,7.07,0,0,0,.06,1.68,13,13,0,0,1,.2,2.39c.1,1.67.07,3.34.14,5,0,.53.14,3.22,3.73,4.89a25.28,25.28,0,0,0,2.45.78,9.28,9.28,0,0,0,4.16.13l.29-.08a1.89,1.89,0,0,1,.11,1c0,.32.09.27.16.28.39.08.31.94.36,1.54s0,1-.28,1c-.77,0-1.53-.33-2.3-.34h0c-.5-.1-1,.19-1.48.13-.87-.11-4.57-.13-5.55-.25a15.85,15.85,0,0,0-3.51.1c-1,.1-2,.31-3,.35a23.07,23.07,0,0,1-2.43-.46c-.25,0-5.08-.24-6-.13a8.86,8.86,0,0,1-2.19-.09,10.41,10.41,0,0,0-3.73.19c-.65.07-4.15,0-4.15,0-.51.08-.31-.67-.64-1.54a1.64,1.64,0,0,1,.78-2c.86-.34,3.19.29,5.94-.6s4.51-5,5-8.23a15.51,15.51,0,0,1-.12-2c.08-2.09-.22-4.17,0-6.29.23-2.35-.06-4.73,0-7.1.08-2.84-.08-5.68-.24-8.52-.14-2.41-.35-4.82-.4-7.23,0-1.67.14-3.38.24-5.06,0-.61,0-1.23,0-1.84a3.82,3.82,0,0,1,.43-2.18c.42-.63.14-1.62.18-2.45a32.87,32.87,0,0,0,.2-3.43,12.16,12.16,0,0,0-.16-3.51h0a12.67,12.67,0,0,0,.05-2,23.59,23.59,0,0,1,.22-4.45,37.08,37.08,0,0,0-.11-6.15,21.68,21.68,0,0,0-.78-4.08,6.46,6.46,0,0,0-2.47-4.13,8.89,8.89,0,0,0-2.61-1c-.52-.13-1.05-.23-1.55-.31a26.64,26.64,0,0,0-3.86-.23.39.39,0,0,1-.46-.41,6.88,6.88,0,0,0-.05-1.36,6.54,6.54,0,0,0-.18-.88c-.12-.43.06-.66.4-.66s6-.23,8.36-.15c2.18.05,4.37.28,6.57.21,1.13,0,6.68.07,8.29.07a13.28,13.28,0,0,1,2.57.27,13.84,13.84,0,0,0,2.14-.14h0a36.64,36.64,0,0,1,11.86.58l.13,0a18.44,18.44,0,0,1,5.14,0c6.71,1.58,8.71,3,9.69,3.63.52.31.75.93,1.14,1.42.27.33.89.47,1.3.79a17.33,17.33,0,0,1,3.32,3.51,9.74,9.74,0,0,1,.6,1h0c0,.52,1.48,2.06,1.65,2.35s1.81,5.67,1.51,7.81c.53,2.51.31,6.92-3.28,12.6a21.58,21.58,0,0,1-4.54,4.83h0a31.91,31.91,0,0,1-4.25,2.86,26.48,26.48,0,0,1-4.73,1.85,3.22,3.22,0,0,0-.82.28l.72,1.24c1.78,2.1,2.79,4.31,4.27,6.61,2,3,5.21,7.79,5.44,8.39s.51,1.36.53,1.45,1.06,1.47,1.6,1.56.81.92,1,1.52c0,.07,1.14,1.23,1.51,1.61l2,2.86s2.25,3.09,2.37,3.28c.56.84,3.19,3.93,3.8,4.74a23.86,23.86,0,0,0,3,2.83,17.24,17.24,0,0,0,5.88,3.84c2.81,1,4.9.52,4.95,1.42ZM321.93,72.92a5.63,5.63,0,0,1,1-1.45c.75-.93.92-3.22,1-3.54a36.78,36.78,0,0,0,.33-4c0-.33,0-.66.07-1a23.11,23.11,0,0,0-1.06-7.06c-1.12-2.82-2.52-5.18-4.5-6.6-1.33-.94-1.76-1.28-3.08-2.22A11.86,11.86,0,0,0,313,46c-.51-.05-4.09-.66-5.75-.84-1.31-.13-3.14,0-4.6,0-2.08.21-4.18.35-6.23.73,0,.09.43,10.14.46,12,0,.94-.21,5.56-.25,6.87a9.69,9.69,0,0,1-.31,2.12,9.14,9.14,0,0,0,.12,1.75c0,1.84,0,3.67-.05,5.51,0,.43,0,8.45,0,8.57a53.56,53.56,0,0,0,6.55.59,10.63,10.63,0,0,0,2.7-.15c6-.87,6.23-1.16,9.15-2.48a15.72,15.72,0,0,0,4.2-3.84A23.09,23.09,0,0,0,321.93,72.92ZM329,51.75c-.3-.32-1.07-1-1.12-1,.24.37,1.19,1.74,1,2.22s2.37,2.2,2.48,3.9h0c-.16.74-.54,2.92-.62,3.64.11.29.31,1.35.31,1.35a7.59,7.59,0,0,0,0,2,6.85,6.85,0,0,1,.48,2.07h0l.17,1.32-.11,1.37c.12.2.26,1.1-.09,1.29s.43.74.43.78a8.8,8.8,0,0,0,.68-2.75,30.76,30.76,0,0,0-.2-4.85c-.09-1.14,0-2.31-.17-3.46-.06-.41-.18-.82-.25-1.22a2,2,0,0,1,0-1.53c.26-.53-.22-1.05-.41-1.52a6.34,6.34,0,0,0-1-2c-.49-.57-1.64-1.62-1.64-1.62Z" transform="translate(-7.55 -15.3)"/><path class="cls-1" d="M449.77,86a40.37,40.37,0,0,1-6.33,20.88l-.27.9c-.21.34-.39.71-.6,1s-.35.56-.53.84a2.33,2.33,0,0,0-.17.26c-1,1.37-2.07,2.72-3.21,4-.57.65-1.14,1.29-1.69,2-.26.25-.52.49-.76.75-5.93,6.36-13.31,9.38-16.66,10.63a75.46,75.46,0,0,1-8.23,2,26.1,26.1,0,0,1-4.68.4c-.57,0-1.14.1-1.71.08a3,3,0,0,1-2-.41c-.57-.42-12-1.64-12.61-1.8-4.19-1.12-11.47-5.49-12.35-6.23a33,33,0,0,1-4.47-4.14c-1.41-1.77-3.07-3.38-4.35-5.26-1.55-2.25-3.08-4.49-4.46-6.85a39.36,39.36,0,0,1-3.11-6.23,14,14,0,0,1-.68-2.36c-.2-.81-.35-1.62-.47-2.42-.09-.59-.3-1.16-.37-1.75a3.61,3.61,0,0,1,.07-2.15c.33-.66,0-1.55-.09-2.35,0-1.1.11-2.2,0-3.29s-.1-3.35-.1-3.35a11.49,11.49,0,0,0,.19-1.94A13.93,13.93,0,0,1,361,75a70.08,70.08,0,0,1,3.95-11.27c.35-.68.42-2.12.87-2.75,1.57-2.2,3.14-3.69,3.53-4.48,2.28-3.67,3.92-4.94,7-8a23.84,23.84,0,0,1,6.47-4.38A31.4,31.4,0,0,1,391,41a8.73,8.73,0,0,1,.8-.42,35.75,35.75,0,0,1,6.53-1.75,36.82,36.82,0,0,1,10.23-.54,58.84,58.84,0,0,1,11.17,3.07,40.58,40.58,0,0,1,6.15,2,29,29,0,0,1,6.07,4c1.15,1,6,5.54,6.87,6.65a11.06,11.06,0,0,1,1.42,2.42c.28.58,1,1.18,1.4,1.84a46.54,46.54,0,0,1,3.42,6.38,15,15,0,0,1,.64,1.56h0a7.46,7.46,0,0,0,.8,2.11,30.46,30.46,0,0,1,3,10.76A44.16,44.16,0,0,1,449.77,86Zm-13.68,0c-.13-1.87-.23-3.75-.45-5.59-.1-1.28,0-2.59-.14-3.87,0-.47-.17-.93-.21-1.39a2.8,2.8,0,0,1,.08-1.73c.29-.57-.16-1.25-.27-1.88a13.12,13.12,0,0,0-.47-2.24q-1.26-2-2.43-4.13a17.93,17.93,0,0,1-2.29-6.1,42.56,42.56,0,0,0-4.09-5.54c-1.79-2-3.95-3.73-5.91-5.62-1.74-1.68-6.17-3.63-7.91-4.19-.71-.2-1.44-.32-2.15-.5A31.58,31.58,0,0,0,396,43.21l-.06,0h0a11.41,11.41,0,0,0-2.39.73A19.52,19.52,0,0,1,391,45c-.83.36-1.72.66-2.54,1.07-2.69,1.35-3.21,3.37-4,4.09a29.45,29.45,0,0,0-8.23,12.7c-.47,1.36-1.71,6.2-1.94,7.6-.93,5.55-.65,9.11-.95,10.33a13.39,13.39,0,0,0-.35,3.53,35.91,35.91,0,0,0,.25,3.87s.22,2.65.35,3c.25.57.75,4.16.95,5.38.39,2.08,3.18,8.16,4,9.65a22.7,22.7,0,0,0,1.49,2.39c.54.78,1,1.57,1.6,2.32l1.57,2A54.22,54.22,0,0,0,388,118.7c.62.63,4.84,3.74,5.34,4a72.52,72.52,0,0,0,7.21,2.53,28.09,28.09,0,0,0,4.88.41,46.81,46.81,0,0,0,6.69-.8,24.09,24.09,0,0,0,6-1.9,27.94,27.94,0,0,0,5.42-3.46,29.77,29.77,0,0,0,6.46-7.86,43.85,43.85,0,0,0,3.89-9c.35-1.47.46-3,.89-4.43a17.07,17.07,0,0,0,.56-2.74c.11-.93.18-1.86.34-2.78A34.64,34.64,0,0,0,436.09,86.05Zm6.61-1.89s-.48,1.12-1.08,1.2-1.23-.13-1.37-.63c-.27.18,0,3,0,4.06h0c-.64,1.35-.43,2.76-.58,4.14s-.2,3-.38,4.53c0,0-.38,3.08-.32,3.49a9.91,9.91,0,0,1-.15,2c-.13,1.06-.29,2.12-.46,3.17a37.39,37.39,0,0,0,2.43-4.21c.84-1.54.28-2.25.39-3.18.1-.65.41-1.26.56-1.9.06-.24,0-.48.09-.72s0-.56.49-.81.16-.63.22-1A4.28,4.28,0,0,0,442.8,93c-.05-.47,0-2-.09-2.22-.22-.6.15-1.2.23-1.8A13.63,13.63,0,0,0,442.7,84.16Z" transform="translate(-7.55 -15.3)"/><path class="cls-1" d="M576.44,127.7a.94.94,0,0,1-.45.93c-.42.33-6.42.06-8,.3a11.36,11.36,0,0,1-3.13-.24,16.88,16.88,0,0,0-3.76,0c-1.06.1-2.13.29-3.19.34a18.68,18.68,0,0,1-2.22-.2c-.26,0-.53,0-.8,0s-.63.1-1-.37-4.55.35-4.84.46a22.44,22.44,0,0,1-4.56-.12,27.74,27.74,0,0,0-6.34.37h0c-.55.09-.93-.91-1.29-1.78a1.54,1.54,0,0,1,.19-1.86c.34-.34,7.06.29,9.53-1.42s3-3.25,3.24-4.05c.68-2.65.25-5.45.55-7.53.32-2.34.08-4.8.21-7.2a83.63,83.63,0,0,0-.18-8.67c-.15-2.44-.41-4.89-.52-7.34-.08-1.7,0-3.41,0-5.12,0-.63-.07-1.25-.08-1.87a4,4,0,0,1,.31-2.25c.38-.67,0-1.66,0-2.51,0-1.17,0-4.62,0-5.17a12.41,12.41,0,0,1-.42-5c0-1.21.15-2.41.19-3.61.13-3.31-.49-5-.59-8.31-.39.73-2.77,5.82-4,8.17-.66,1.47-9.44,19.72-10.4,21.54-6.23,11.81-7.44,14.27-8.73,16.94-1.91,4-6.31,13.93-6.61,14.78-.64,1.81-1.34,3.59-1.89,5.42a8.16,8.16,0,0,0-.28,1.78c0,.53-.32.61-.77.56a1.4,1.4,0,0,0-1.18.24c-.1.25-.63.56-.65.64.75,1.35.78,1.68-.41,1.9-.32.05-.16.28-.11.43.24.66.81,1.36-.35,1.88-1.75.65-1.91,0-2.2-.59-.1-.21-3.06-6.3-4.17-9.09,0,0-4.69-10.89-5.37-12.35A83.82,83.82,0,0,0,498,100c-1.26-2.15-2.62-4.24-3.84-6.41-.85-1.51-1.53-3.12-2.3-4.67-.28-.57-.64-1.1-.93-1.66a4,4,0,0,1-.75-2.18c0-.77-.72-1.52-1.11-2.29-.54-1.06-1-2.19-1.6-3.2s-1.93-3.1-1.93-3.1a12.45,12.45,0,0,0-1-1.88,23.7,23.7,0,0,1-2-4.23C480.84,66.6,479,62.27,477,58.62c0,.69,0,2,0,2.73S477,65,477,65.62c0,2-.27,7.52-.27,7.52s-.11,19.6-.41,25.56c-.15,3.06-.38,14.38-.37,14.66a33.12,33.12,0,0,0,.38,5.9,17.37,17.37,0,0,0,1.34,2.93,6.56,6.56,0,0,0,3.34,2.46,27.2,27.2,0,0,0,4.82.74,4.44,4.44,0,0,1,1.9.58,2.28,2.28,0,0,1,.39.48,1.72,1.72,0,0,1,.32.34,1.1,1.1,0,0,1,.14.92,1.55,1.55,0,0,1-.12.22,2.15,2.15,0,0,1-.12.56.84.84,0,0,1-.36.47.87.87,0,0,1-.39.1c-.1,0-2.82.06-3.55.06a23.22,23.22,0,0,1-3.23,0,7.55,7.55,0,0,0-2.67-.23,21.82,21.82,0,0,1-3.13.3c-1,.07-2,0-3.09,0s-1.86-.22-2.8-.28a21.5,21.5,0,0,0-2.88.23c-1,.06-5.66-.26-7-.13a11.5,11.5,0,0,0-1.75.44h0c-.45.07-.73-1-1-1.83s-.19-1.68.21-1.85a6.28,6.28,0,0,1,2.32-.65,13.72,13.72,0,0,0,2.12.13,15.34,15.34,0,0,0,4.77-1.77,9.89,9.89,0,0,0,3.55-5.14c1.61-4.83,1.27-6.71,1.57-9.2.09-1.91,0-3.84.14-5.75.21-3,.19-5.89.18-8.84,0-2.5-.1-5,0-7.49.05-1.74.34-3.46.51-5.19.06-.63,0-1.27.1-1.9a4,4,0,0,1,.54-2.24c.45-.64-.21-2.3-.21-3.15,0-6.77,1.21-21.83-.23-25.59a7.62,7.62,0,0,0-2.4-3.27,58.76,58.76,0,0,0-7.6-1.39c-.27.11-.49-.47-.73-1.34a1.54,1.54,0,0,1,.9-1.92c.54-.09,19.72,0,20.07,0,.61-.08.95,1.29,1.06,1.45a35.08,35.08,0,0,1,3.3,5.17c.82,1.66,1.45,3.42,2.3,5.07.43.85.8,1.74,1.18,2.61h0c-.07.07,0,.09.05.09h0a19.15,19.15,0,0,0,1.6,3.65,9,9,0,0,1,.64,2.06c.1.49,3.76,7.75,3.76,7.75h0a14,14,0,0,0,1.6,3.37c.53.69,4.9,9.86,4.9,9.86.16.35,4.58,10.53,5.3,12s3.64,6.73,3.64,6.73l2.14,3.49c.84,1.45,3.12,7.34,3.15,7.29,1.38-2.27,3-6.43,4.26-8.74,1.54-2.76,2.82-5.64,4.1-8.53,1.08-2.45,2.07-4.93,3.21-7.35.79-1.68,1.76-3.28,2.63-4.92.32-.6.56-1.24.87-1.84a4.63,4.63,0,0,1,1.42-2c.67-.46,5.94-12.87,6.2-13.36L550.35,41.6c.15-.33.13-.59.73-.63s1.61-.45,2.17-.47a16.29,16.29,0,0,1,3.19.26,81.37,81.37,0,0,0,9.33-.22c1-.06,2-.1,3-.09a13,13,0,0,1,2.9.53c.82.25.2.65.51,1s.07,1,.11,1.6a1.06,1.06,0,0,1-.64,1,4,4,0,0,1-1.35-.37h0a4.19,4.19,0,0,1-.87.11,14.49,14.49,0,0,0-4.61.83,4.5,4.5,0,0,0-1.92,1.29,6.65,6.65,0,0,0-1.65,4.16c-.17,1.53.11,10.16.14,11.37,0,.64,0,4.45,0,5,0,2,.06,4.73.06,4.73-.14.28,0,4.71.14,8.42.07,2.68.07,5,.07,5,0,.35.59,5.63.58,6-.05,1.28-.07,2.55-.13,3.83-.14,3,0,6,.15,9s.27,5.83.38,8.75a31.77,31.77,0,0,0,.31,4.47,15.43,15.43,0,0,0,1.68,5.26c2,3.08,9.27,3.37,9.7,3.22a1.93,1.93,0,0,1,1.06-.16.64.64,0,0,1,.45.49c1-.16.78.6.63.88l0,0A3.64,3.64,0,0,0,576.44,127.7ZM559.3,44a1.45,1.45,0,0,0-.71-.07,11.18,11.18,0,0,1-2.46,0,7.16,7.16,0,0,0-1-.16c.1.54.09,1.07.21,1.55a4.75,4.75,0,0,1,.06,1s0,.91,0,1.33c0,.23-.14,1-.13,1.2v1.63c0,.13,0,.26,0,.38s-.05.65-.05.75a.57.57,0,0,0,.07.35c.2.24-.29,1.4-.22,1.61l.53,1.62a13.18,13.18,0,0,1-.7,1.27s0,3.17,0,3.43l.44-.09c0-.16.06-.33.08-.49l.84-6.52c.17-1.2.33-2.45.62-3.72-.12-.64-.4-1.93-.4-1.93-.15-1.06.62-.55,1.45-1.23.35-.29,1.09-1,1.37-1C559.37,44.81,559.22,44.06,559.3,44Z" transform="translate(-7.55 -15.3)"/><path class="cls-1" d="M624.93,128.83c0,.57-.11,1-.88,1-.45,0-19.54.43-20.9-.22a5.64,5.64,0,0,0-2.78-.3,19.74,19.74,0,0,1-3.2.45,33.55,33.55,0,0,0-6.8.1,1.38,1.38,0,0,1-1.7-1.14c-.18-1,0-2.13.36-2.35.76-.41,2-.08,2.79-.14,3.62-.25,4.88-.74,6-1.68,4-3.27,2.16-17.87,2.35-20.19.23-2.78.09-25.43.12-26.24,0-1.12.2-8.2.1-8.86a20.87,20.87,0,0,1,.17-4.4,93.75,93.75,0,0,0-.23-12.32A20.78,20.78,0,0,0,599,48.26a6.5,6.5,0,0,0-2.85-2.2,16.41,16.41,0,0,0-4.24-.8,5,5,0,0,0-2.26.14c-.7.24-.37-.71-.66-1.6s-.54-1.79-.08-2a9.47,9.47,0,0,1,2.94-.27c.8,0,1.28.12,5.75.2s15.23-.57,22.84-.36c.32,0,3.83.09,3.61.43.08.13.23,1.16-.39,1.21-.71.31,1,2.25.39,2.37s-5.34-.32-7.38.58a6.29,6.29,0,0,0-3.53,4.72c-.1.79-.91,16.45-1.11,17.27-.14.55.51,3.72.51,5.28a41.35,41.35,0,0,1-.63,6.42c0,.37,0,.74,0,1.1a6.82,6.82,0,0,0,.06,1.36c.19,1,.09,5.51.17,6.33l.18,6.35c0,.45.34,8.69.34,8.69s-.44,14.58.37,16.76a23.77,23.77,0,0,0,2.4,4.19c1.48,1.2,2.74,1,7.18,1.3.55,0,1.57,0,1.2,1.21-.09.31.2.27.37.29C625.22,127.37,624.88,128.23,624.93,128.83ZM609.74,46.19a20.23,20.23,0,0,1-2.06.2,13.7,13.7,0,0,1-1.56-.08,6.68,6.68,0,0,1,.42,1.94c0,.87-.07,3-.07,3.17s.39,1.19.41,1.23.31-1.25.36-1.33,0-.51.53-.48.53-.58.52-.76a4.38,4.38,0,0,1,.58-1.39,3.13,3.13,0,0,0,.91-1.65A4.57,4.57,0,0,0,609.74,46.19Z" transform="translate(-7.55 -15.3)"/><path class="cls-1" d="M710.43,110.78c-.23.9-1.37,5.09-1.83,6.75s-2.36,9.84-2.4,10.18a2,2,0,0,1-.41,1.12,1.1,1.1,0,0,1-.31.25.54.54,0,0,1-.6.51c-1.4,0-2.77-.5-4.17-.57h-.08c-.91-.14-1.83.11-2.74,0-1.6-.17-3.2,0-4.81-.25-1.79-.3-3.63-.12-5.44-.25-2.17-.17-10.2.35-12,.4-1.28.05-16.27-.3-16.42-.37a25.68,25.68,0,0,1-2.77-.25,74.29,74.29,0,0,0-9.67,0c-1.24.07-3.67.51-4.9.67h0c-1,.07-1.53-.94-2.08-1.81s-.36-1.68.49-1.86c1.62-.33,3.67,0,5.31,0a4.94,4.94,0,0,0,2.21-.86c.51-.42,1.42-1.2,2.11-1.82a9.22,9.22,0,0,0,1.88-2.87c.52-1.14.64-11.64,1-13.83.34-2.43.16-4.93.31-7.39.17-2.93-.77-10.87-.9-11.91s-.21-2.33-.23-3.51c0-2.21.52-7.57.51-8.07a4.21,4.21,0,0,1,.28-2.29c.37-.69,0-1.7,0-2.56a35.72,35.72,0,0,0-.08-3.59c-.14-1.22.12-4-.56-5.77-.56-1.49-.1-3.14-.12-4.69,0-2.17.09-7.62-2.23-9.89-1.25-1.24-3.89-2-6.6-2.09a14.36,14.36,0,0,0-1.67.21h0c-.49.08-.81-.93-1.11-1.81a3.27,3.27,0,0,1-.14-.56.74.74,0,0,1,0-.92.61.61,0,0,1,.31-.38l.32-.13a33.83,33.83,0,0,1,5.42.08c1.23,0,4.38,0,4.79-.06,1-.08,13-.07,14.58,0s3,0,4.52,0a7.29,7.29,0,0,0,2.19-.1c1.81-.55,2.4,0,2.45.24.19.44.6,0,.73.15a.78.78,0,0,1,.42.34.58.58,0,0,1-.3.88c.26.25.87.51.84,1s-.35,1-.84,1a23.21,23.21,0,0,0-8.08,1.35,6.07,6.07,0,0,0-1.63,1.21,4.13,4.13,0,0,0-1.2,3.17v0c-.26,3.14-.14,22.59,0,26.67.07,2.16-.25,12.17-.21,12.47.11.77-.29,9.9-.2,11.79.08,1.37-.09,7.67.33,12.65a21.93,21.93,0,0,0,1.19,5.74c.48.91,3,3.06,6,4.09s14.68,1.29,15.68,1.29c1.31,0,2.61-.07,3.92-.12,2.29-.31,6-1.27,7.43-2.31.34-.25,3.15-3,4.18-4.07a15.53,15.53,0,0,0,3.78-6.82c.12-.69.46-2.24,1.11-2.31s1,.35,1.87.41C710.46,109.38,710.59,110.12,710.43,110.78ZM658,44.51a.2.2,0,0,1,0-.08l-.54-.06c-.24,0-.48.05-.71,0s-.56.12-.87-.36-.64-.07-1-.09a5.19,5.19,0,0,0-1.36-.08,4.7,4.7,0,0,1-.75,0,7.35,7.35,0,0,1,.45,1c.22.61.36,1.13.5,1.57a4,4,0,0,0,.2.56c0,.11.2.48.31.72a29.78,29.78,0,0,1,1,6.19,37.39,37.39,0,0,1-.1,4.36,10.6,10.6,0,0,0,.16,2l1,5.92,0,.26c0-.49.07-1,.09-1.47a117,117,0,0,0-.41-12.56c-.13-1.6-.14-4.14-.1-5A3.3,3.3,0,0,1,656.94,45,1.53,1.53,0,0,1,658,44.51ZM704.45,122s-.7,0-.7,0a2.48,2.48,0,0,0,0,.68l-.79-.21a4.6,4.6,0,0,1,0,.86,1.28,1.28,0,0,1-.75,0,6.86,6.86,0,0,1,.73,1,2.13,2.13,0,0,0,.26,1l.82-.88c.17-.23-.36-.8-.23-1,.24-.4.36-.1.72-.48S704.38,122.3,704.45,122Z" transform="translate(-7.55 -15.3)"/><path class="cls-1" d="M805.33,128.44s-.08.64-.18.64c-.26,0-4.84,0-5.71,0-2.86,0-9.39-.09-9.5-.08h-.18c-2.29.09-4.56-.38-6.88-.29-1.5,0-3,.39-4.49.44a35.28,35.28,0,0,1-5.65-.23.78.78,0,0,1-.28-.82c0-.07,0-2.34,0-2.34a6.06,6.06,0,0,1,.9-.11c.07,0,1.58-.09,2.28,0a8.59,8.59,0,0,0,1.88-.1,5.58,5.58,0,0,0,3.08-1.43,2.4,2.4,0,0,0,.54-.88,5.45,5.45,0,0,0,.27-2.75c-.19-1.14-.78-2.33-1-3.44-.44-2-1.06-3.57-1.63-5.53-.71-2.46-5.15-14.81-5.15-14.82-.1-.29-.13-.53-.16-.61s-.52.18-.95.29a4.85,4.85,0,0,1-1.48,0,12.28,12.28,0,0,0-3.42-.13c-.67.12-15.19.09-15.64,0-2,0-2.61-.25-4.19.39a4.39,4.39,0,0,1-3.81-.51h0s-2,6.24-2.38,7.27c-.31.76-3.29,11.35-3.79,14.32-.44,2.67-.07,5.67,2.89,7.41a31.21,31.21,0,0,0,5.26.56l1.61.1c.06.16,0,.82.57.47.17-.1.85-.33.69.93,0,.31.05.27.1.28.3.1.23.77.2,1.35a1,1,0,0,1-.62.35,4.35,4.35,0,0,1-1,0c-1.39-.08-5.82.06-6.6-.07a10.84,10.84,0,0,0-3,0,72.78,72.78,0,0,1-12.33-.08c-1.15-.12-6,0-6.58,0s.18-3.14.22-3.32l.25-.07c1.54-.35,1.6-.43,2.89-.74s1.51.31,2.43.07,3.08-2.25,3.53-2.78a90.65,90.65,0,0,0,6.36-12.74c.85-2,3.64-11.34,3.79-11.89,0-.1,8.44-23.41,8.86-24.53s3.19-9.35,4.87-13.64c.08-.2,2.57-8.76,2.75-9.71a28.94,28.94,0,0,0,0-6.55s.65-.73,1.25-.65.57.29,1.51-.28A22.19,22.19,0,0,0,760,40.08,11.6,11.6,0,0,0,761.89,38c.31-.4.46.3.7.35.78.18.64-.69.84-.7s1,0,1,0,1,2.37,1.06,2.62c.18.41,6,17.94,6.86,18.41,2.14,1.19,6.88,20.17,8.3,24s8.06,22.23,8.85,24.08l1,2.18h0c.1.28,1.89,4.57,2.08,5.59a11.28,11.28,0,0,0,.65,3.09c.47,1,1,1.93,1.47,2.91a7.33,7.33,0,0,0,2.45,3.22,8.23,8.23,0,0,0,2.35,1.13c1.46.53,3,.14,3.61.38s1.07.61,1.3.49c.77-.4.9,0,.9,0ZM771.28,90.6c-.58-1.48-1-3-1.49-4.53-.19-.56-.46-1.08-.65-1.64a3.59,3.59,0,0,1-.41-2.11,7.72,7.72,0,0,0-.42-3c-.37-1-1.65-2.23-2.36-3.75,0,0-1-2.74-1.21-3.51-.38-1.43-1-2.75-1.4-4.13S760,59,759,56.53c-.35-.8-.62-1.91-1-2.69-.29.92-.71,2.17-.94,3.1s-3.28,8.26-3.69,9c-.28.48.07,1.93-.12,2.57L751,74.82s-1.33,3-1.61,3.55c-1.59,2.88-1.11,5.86-1.75,7.23s-1.88,5.24-1.9,5.26h0c.32,0,1.15.13,1.24.13Q759.13,91.1,771.28,90.6Zm-23.53-5Zm44.1,38.79a44.64,44.64,0,0,1-1.06-4.66c-.28-1.49-1.27-2.64-1.67-3.86-.31-1-1.14-3-1.73-2.13a1,1,0,0,0,.16.65c.25.41-1.25-.23-2.54-.07-.32,0,0,1.67-.55,1.9.23.75.6,1.83.85,2.58a22.26,22.26,0,0,0,1.54,2.24c.24.43,0,.64-.38.82-.79.34-1.22.72-.84,1.58.16.36.32,1-.2,1.22.1,0,1.27.76,1.53.4s1.51-.55,1.51-.54c.37,0,1.07.65,1.53.64s.49-.29.76-.58S791.85,124.39,791.85,124.39Z" transform="translate(-7.55 -15.3)"/><path class="cls-1" d="M916.64,43.6c-.28.24.1.7-.32,1s-3.29.21-3.91.37A10.3,10.3,0,0,0,908,46.48c-1.76,1.24-2.95,6.17-3.37,9.49a54,54,0,0,0,0,5.68,11.84,11.84,0,0,1-.21,2.36,11.08,11.08,0,0,0,.22,1.95c.07,2.05.14,4.1.13,6.21l0,1.45h0a10.75,10.75,0,0,0-.08,2.8,7,7,0,0,0-.15,1.35,84.88,84.88,0,0,1,.3,9.58h0s-.06,15.24,0,17c0,0,.76,5.56,0,8.4-1.24,4.57.09,13.66.11,14.72,0,.07-.07,2.14,0,2.21.11.46-.34.57-.87.53a11.58,11.58,0,0,1-2-.07c-.27-.09-5.29-5.7-6.3-6.9-1.62-1.93-5.07-5.84-5.09-5.86-1.9-2.1-3.09-3.8-4.93-6-2.05-2.43-4.27-3.87-6.46-6.2-2.63-2.8-5.68-6.08-8.49-8.7-2.38-2.22-4.84-5.16-7.16-7.47-1.59-1.61-7.66-7.43-8-8.52-.29-.92-1.42-1.68-2.16-2.54-1-1.2-1.93-2.47-3-3.58a23.21,23.21,0,0,0-3.28-3.51h0c-.59-.71-4.22-5.41-5.42-7a53.52,53.52,0,0,0-5.45-5.72c0,3.54.22,55.46.23,55.6.16,2.64.31,5.47,1.59,7.84a10.85,10.85,0,0,0,1.56,1.7,14.41,14.41,0,0,0,5.74,2.19c4.77.51,5.8.29,5.84.65s-.08.66-.53,1.25c-.19.25.34.63.41.65.37.12.16.48.12,1.08s-6.64,0-8.26.06c-1.13,0-12.53-.1-13,0-.1,0-1.94.15-2.2.26-.59.24-1.2-.09-1.79-.16a37.52,37.52,0,0,0-7.11.11c-.64.08-.62-.42-1-1.28s-.28-1.68.16-1.87a7.22,7.22,0,0,1,2.5-.76c.77,0,1.55.13,2.32,0,1.43-.37,2.65-.08,4.94-2.21a10.56,10.56,0,0,0,2.1-3.37c.8-1.91,1.26-6.61,1.34-7.35.22-2.09-.08-4.19,0-6.28a72.49,72.49,0,0,0-.28-7.52c-.15-2.12-.4-4.24-.49-6.36-.06-1.48.08-3,.12-4.44,0-.54-.06-1.08-.05-1.62a3,3,0,0,1,.34-1.94c.39-.58.25-4.21.17-5.22s-.14-7.57-.05-8.89a103,103,0,0,0,.11-11.11,24.09,24.09,0,0,0-1-6.73,11,11,0,0,0-3.42-4.71,10.57,10.57,0,0,0-5.26-2.5,33.08,33.08,0,0,0-4.88-.64c-.44,0-1.29.31-1.39-.55s-.19-2.24.1-2.42c.57-.35.68-.14,1.27-.17h.31c6.46-.06,17.17-.33,18.48-.08s2.17-.12,2.42.23c1.07,1.49,5.62,6.65,6.87,8,1.48,1.54,2.8,3.23,4.31,4.75.78.78,4.34,4.81,5.38,5.94.56.6,2.16,2.68,2.63,3.18,0,0,4.21,4.51,6.68,7.14a24.08,24.08,0,0,0,2,2c.28.21,1.53,1.68,3.12,3.39,2.87,3.08,6.68,7.1,6.68,7.1l1.15,1.07h0c.32.17.57.33.54.81s6.09,6.85,7.36,8.22,2.83,3,4.25,4.43c0,0,2.86,3.06,3.3,3.38a19.46,19.46,0,0,1,2,1.91c1.38,1.37,2.06,2.86,3.42,4.25.43.44,2.29,2.62,2.32,2.75-.17-11.24-.37-35.39-.18-35.51,0-.74-.41-5.87-.41-6.5,0-1.5.15-3,.25-4.48a89.87,89.87,0,0,0-.59-11.24,6.12,6.12,0,0,0-2-3.45,15.09,15.09,0,0,0-8.77-3.84,17.62,17.62,0,0,0-2.49.13c-1,.1-.92-.53-1.21-1.4s-.2-1.69.21-1.86a6.49,6.49,0,0,1,2.35-.68c.72,0,8.55.25,10.14.26,1.86,0,9.32-.1,9.8-.12.69,0,2.57,0,3.29,0a57.65,57.65,0,0,1,6,.2c.74.25.08,1.26.33,1.42A.45.45,0,0,1,916.64,43.6Zm-31.95,60.86c-.14-.19-.3-.37-.44-.56-1.58-2.17-3.56-4-5.3-6.1-2.07-2.49-4.34-4.78-6.62-7.06-2-1.92-4-3.78-5.88-5.73-1.33-1.35-2.51-2.86-3.79-4.27-.46-.52-1-1-1.46-1.49a4.83,4.83,0,0,1-1.46-2.06c-.22-.79-1.21-1.38-1.85-2.08-.89-1-1.69-2-2.66-2.89-.28-.25-.55-.53-.81-.81a.35.35,0,0,1-.42.08c-.79-.46-1.25-1.31-1.89-1.88h0l0,0h0c-.36-.44-1-.59-1.31-1-.61-.75-1.51-1.25-1.88-2.16-2-5-5.43-6.35-7.38-8.28,1,1.21,2.07,2.29,3.06,3.48a16.56,16.56,0,0,1,1.73,2.55,14.57,14.57,0,0,0,1.11,2.45c1.64,2,3.92,3.35,5.61,5.33l1.19,1.37h0A6.73,6.73,0,0,0,855.68,75c.3.33.56.7.86,1a10.11,10.11,0,0,0,1.18,1.18,7.88,7.88,0,0,1,2.33,3.24c.38,1.09,5.41,4.5,6.21,5.62h0l1.63,1.77c0,.15,2,2,2,2h0L871.32,91h0a4.5,4.5,0,0,1,1.16,2.14c0,.4,7.46,6.76,9.1,8.36C882.6,102.52,883.65,103.48,884.69,104.46ZM903.93,45c-.69.12-1.93.35-2.62.39a24.81,24.81,0,0,1-3.19-.56s0,1.15,0,1.2.84,0,.94.08a4.49,4.49,0,0,1,.79,1.12c.1,0,.36-.46.46-.51.94-.42,1.46-.33,1.66.18.06.14.11.29.17.43A17.32,17.32,0,0,1,903.93,45Z" transform="translate(-7.55 -15.3)"/><path class="cls-1" d="M1014.23,86a40.46,40.46,0,0,1-6.33,20.88c-.09.3-.19.6-.28.9s-.38.71-.59,1-.35.56-.53.84l-.18.26c-1,1.37-2.07,2.72-3.2,4-.57.65-1.14,1.29-1.7,2-.25.25-.51.49-.76.75C994.74,123,987.35,126,984,127.28a76,76,0,0,1-8.23,2,26.17,26.17,0,0,1-4.68.4c-.57,0-1.14.1-1.71.08a3,3,0,0,1-2-.41c-.57-.42-12.06-1.64-12.61-1.8-4.19-1.12-11.47-5.49-12.36-6.23a33,33,0,0,1-4.46-4.14c-1.41-1.77-3.07-3.38-4.36-5.26-1.54-2.25-3.08-4.49-4.45-6.85A38.52,38.52,0,0,1,926,98.8a13.09,13.09,0,0,1-.68-2.36c-.2-.81-.35-1.62-.47-2.42-.09-.59-.3-1.16-.37-1.75a3.53,3.53,0,0,1,.07-2.15c.32-.66,0-1.55-.09-2.35-.05-1.1.1-2.2,0-3.29l-.09-3.35a10.53,10.53,0,0,0,.18-1.94,14.25,14.25,0,0,1,.89-4.19,69.12,69.12,0,0,1,3.95-11.27c.35-.68.42-2.12.87-2.75,1.56-2.2,3.13-3.69,3.53-4.48,2.28-3.67,3.91-4.94,7-8a23.93,23.93,0,0,1,6.46-4.38A31.68,31.68,0,0,1,955.45,41c.27-.15.54-.3.81-.42a35.75,35.75,0,0,1,6.53-1.75A36.74,36.74,0,0,1,973,38.25a59.12,59.12,0,0,1,11.18,3.07,40.34,40.34,0,0,1,6.14,2,28.83,28.83,0,0,1,6.08,4c1.15,1,6,5.54,6.86,6.65a11.1,11.1,0,0,1,1.43,2.42c.28.58,1,1.18,1.4,1.84a46.54,46.54,0,0,1,3.42,6.38c.24.51.44,1,.64,1.56h0a7.16,7.16,0,0,0,.8,2.11,30.44,30.44,0,0,1,3,10.76A44.36,44.36,0,0,1,1014.23,86Zm-13.68,0c-.13-1.87-.24-3.75-.45-5.59-.1-1.28,0-2.59-.15-3.87,0-.47-.16-.93-.21-1.39a2.74,2.74,0,0,1,.09-1.73c.29-.57-.17-1.25-.27-1.88a13.14,13.14,0,0,0-.48-2.24c-.83-1.36-1.65-2.74-2.42-4.13a18.16,18.16,0,0,1-2.3-6.1,43.42,43.42,0,0,0-4.08-5.54c-1.79-2-4-3.73-5.91-5.62-1.75-1.68-6.18-3.63-7.91-4.19-.71-.2-1.44-.32-2.15-.5a31.58,31.58,0,0,0-13.84-.06l-.06,0h0A11.5,11.5,0,0,0,958,44a19.52,19.52,0,0,1-2.55,1c-.84.36-1.72.66-2.54,1.07-2.69,1.35-3.21,3.37-4,4.09a29.26,29.26,0,0,0-8.23,12.7c-.47,1.36-1.71,6.2-1.94,7.6-.93,5.55-.66,9.11-1,10.33a13,13,0,0,0-.35,3.53,35.89,35.89,0,0,0,.24,3.87,30,30,0,0,0,.36,3c.25.57.75,4.16.94,5.38.4,2.08,3.19,8.16,4,9.65a22.78,22.78,0,0,0,1.5,2.39c.53.78,1,1.57,1.6,2.32l1.56,2a53.59,53.59,0,0,0,4.83,5.79c.62.63,4.84,3.74,5.34,4a73.4,73.4,0,0,0,7.2,2.53,28.25,28.25,0,0,0,4.89.41,46.81,46.81,0,0,0,6.69-.8,24,24,0,0,0,6-1.9,28.28,28.28,0,0,0,5.43-3.46,29.75,29.75,0,0,0,6.45-7.86,43.54,43.54,0,0,0,3.9-9c.34-1.47.46-3,.88-4.43a17.1,17.1,0,0,0,.57-2.74c.11-.93.17-1.86.34-2.78A34.64,34.64,0,0,0,1000.55,86.05Zm6.61-1.89s-.49,1.12-1.08,1.2-1.23-.13-1.38-.63c-.26.18,0,3,0,4.06h0c-.64,1.35-.43,2.76-.59,4.14s-.19,3-.37,4.53c0,0-.38,3.08-.33,3.49a9.26,9.26,0,0,1-.15,2c-.12,1.06-.28,2.12-.45,3.17a37.31,37.31,0,0,0,2.42-4.21c.85-1.54.29-2.25.39-3.18.11-.65.42-1.26.57-1.9,0-.24,0-.48.08-.72s0-.56.5-.81.16-.63.22-1a4.92,4.92,0,0,0,.24-1.36c0-.47,0-2-.09-2.22-.23-.6.15-1.2.23-1.8A13.87,13.87,0,0,0,1007.16,84.16Z" transform="translate(-7.55 -15.3)"/></svg>