<svg id="Calque_1" data-name="Calque 1" xmlns="http://www.w3.org/2000/svg" viewBox="0 0 759.95 128.64"><defs><style>.cls-1{fill:#fff;}</style></defs><path class="cls-1" d="M136.9,52.89c0,29.33-24,36.33-47.28,36.33H61.25v51.22h0v.26H40.51v-.26h0v-125h0v-.26H81.45C108.43,15.15,136.9,23.55,136.9,52.89Zm-22.3.17c0-17.6-5.28-37.65-32.75-37.65H61.25V89H85.73C104.94,89,114.6,72.76,114.6,53.06Z" transform="translate(-40.51 -13.54)"/><path class="cls-1" d="M223,140.6v.26c-12.33,3.67-29.35-.35-33.45-11.65v-.6c-6.46,8.66-13.54,13.48-25.86,13.48-7,0-12.65-1.66-16.93-4.9s-6.38-7.72-6.38-13.4c0-14,9.55-19.87,25-23.89,8.45-2.21,16.6-4.39,24.17-6.4v-.59c-6.15-1.31-27.1-6.38-32.21-15.54l-6.5-9.32c6-4.1,13.34-6.16,21.79-6.16,11.54,0,20,2.7,25.29,8.15s8,12.51,8,21.45V131C205.91,140.77,206.89,143.41,223,140.6ZM172.36,62.15c-10.26,0-17.12,5.79-15.44,13.53,3.33,10,26.12,15.55,32.66,16.94v-8C189.58,74.4,190.09,62.15,172.36,62.15Zm17.22,65.94V93.76l-21.39,5.68c-7.08,1.84-10.44,11-10.44,23,0,10.86,4.66,18.12,14.12,18.12,6.07,0,13.83-6.39,17.71-12.42Z" transform="translate(-40.51 -13.54)"/><path class="cls-1" d="M276.8,82.55c0-3.85,1.58-7.26,1.58-10.85,0-3.24-1.27-8.31-6.65-8.31-7.07,0-12.86,5.5-17.22,13.3-4,6.92-4.19,8.32-4.19,18.39v45.61H234V75.46L250.32,63.3V84.56l1-2.62c3.39-7.19,7.07-12.35,10.95-15.4s9.06-4.65,15.13-4.65c9.57,0,15.73,6,15.73,14Z" transform="translate(-40.51 -13.54)"/><path class="cls-1" d="M301.32,47.74A8.64,8.64,0,1,1,310,56.37,8.64,8.64,0,0,1,301.32,47.74ZM302,75.62l16.17-12v77H301.79V75.77Zm16.17-12.41h.15l-.15.11Z" transform="translate(-40.51 -13.54)"/><path class="cls-1" d="M400,118.63a20.71,20.71,0,0,1-8.06,17c-5.28,4.29-13.54,6.48-24.59,6.48a30.37,30.37,0,0,1-13.63-3.33c-5.68-2.71-16.23-5.69-16.23,3.33h-.2V111.62h.3c0,16.72,13.94,30.21,29.76,30.21,13.64,0,20.71-6.13,20.71-17.07,0-5.52-1.79-7.53-5.28-10s-9.85-5.07-19-7.61c-8.66-2.37-13.73-4.47-18.81-8.24s-7.47-9-7.47-16.37a18.21,18.21,0,0,1,7-15A25.58,25.58,0,0,1,361,61.89,40.55,40.55,0,0,1,376.84,65c5.38,2.28,15.83,3.59,15.83-3.06H393v24.6h-.29a89.13,89.13,0,0,0-7-13c-4.88-7.79-13.84-11.29-24.68-11.29-9.16,0-13.14,6.83-13.14,14.62,0,5.17,1.59,6.57,3.68,8.67,5.08,4.47,12.84,6.22,19.21,8.14,10.65,3.24,18.21,6.66,22.59,10.25S400,112.41,400,118.63Z" transform="translate(-40.51 -13.54)"/><path class="cls-1" d="M516.6,140.23v.26H498.24V29.75l-.78-.28c-3.59,2.37-7.48,5.35-12.44,7.71-3,1.43-6,2.68-9.1,3.82v-.3c3.24-1.21,6.22-2.48,8.88-3.78a67.77,67.77,0,0,0,26.59-23h5.17V140.23Z" transform="translate(-40.51 -13.54)"/><path class="cls-1" d="M628.16,73.78a80.87,80.87,0,0,1-7.36,34.41c-4.88,10.51-11.35,18.74-19.61,24.78a44.15,44.15,0,0,1-26.48,8.93c-8.86,0-16.22-2-22.1-6S544,127.1,544,121.41l21-5c-4.48,4.55-6.1,8.47-5.48,14.53.58,5.67,5.67,10.68,15.23,10.68,28.07,0,32.36-45.58,32.76-64.32l-.61,1.63c-5.77,9.29-19,14.71-32,14.71-29.16,0-40.41-19.26-40.31-36.51a43.29,43.29,0,0,1,5.47-21.54A41.8,41.8,0,0,1,556,19.67a45.54,45.54,0,0,1,23.69-6.13A45,45,0,0,1,613.93,28.6C622.79,38.4,628.16,54.43,628.16,73.78Zm-47.58-60c-16.62,0-25.28,18.83-25.28,45,0,18.82,6.87,33.44,25.58,33.44a30.2,30.2,0,0,0,16.52-5c8-5.08,10.06-8.93,10.06-14.36C607.46,52.5,611.84,13.8,580.58,13.8Z" transform="translate(-40.51 -13.54)"/><path class="cls-1" d="M741.75,79.21c0,14.09-4.67,29.42-12.64,41.76-7.46,11.39-20.2,20.93-35.14,20.93-33.44,0-47.77-39.84-47.77-62.69,0-24.43,14.63-65.67,47.77-65.67S741.75,55.83,741.75,79.21ZM694,13.8c-28.06,0-27.27,38.79-27.27,65.67,0,46.67,7.36,62.16,27.27,62.16s27.28-15.49,27.28-62.16C721.25,52.5,722.14,13.8,694,13.8Z" transform="translate(-40.51 -13.54)"/><path class="cls-1" d="M800.46,140.23v.26H782.09V29.75l-.77-.28c-3.59,2.37-7.48,5.35-12.45,7.71-3,1.43-6,2.68-9.09,3.82v-.3c3.24-1.21,6.22-2.48,8.88-3.78a67.77,67.77,0,0,0,26.59-23h5.17V140.23Z" transform="translate(-40.51 -13.54)"/></svg>